SplineFontDB: 3.0
FontName: FabrikItalic
FullName: FabrikItalic
FamilyName: Fabrik
Weight: Normal
Copyright: OFL Open Font License
Version: Version 1.5 (20.02.2010)
DefaultBaseFilename: fabrik_i
ItalicAngle: 0
UnderlinePosition: -125
UnderlineWidth: 50
Ascent: 800
Descent: 200
LayerCount: 2
Layer: 0 1 "Back" 
Layer: 1 1 "Fore" 
XUID: [1021 639 1133821918 5829153]
UniqueID: 4066438
FSType: 0
OS2Version: 0
OS2_WeightWidthSlopeOnly: 0
OS2_UseTypoMetrics: 0
CreationTime: 1256911458
ModificationTime: 1266667961
PfmFamily: 17
TTFWeight: 400
TTFWidth: 5
LineGap: 90
VLineGap: 90
OS2TypoAscent: 0
OS2TypoAOffset: 1
OS2TypoDescent: 0
OS2TypoDOffset: 1
OS2TypoLinegap: 90
OS2WinAscent: 0
OS2WinAOffset: 1
OS2WinDescent: 0
OS2WinDOffset: 1
HheadAscent: 0
HheadAOffset: 1
HheadDescent: 0
HheadDOffset: 1
OS2Vendor: 'PfEd'
Lookup: 4 0 1 "'liga' Standard Ligatures in Latin lookup 0"  {"'liga' Standard Ligatures in Latin lookup 0 subtable"  } ['liga' ('latn' <'dflt' > ) ]
Lookup: 4 0 0 "'dlig' optionale Ligaturen in Latin lookup 1"  {"'dlig' optionale Ligaturen in Latin lookup 1 subtable"  } ['dlig' ('latn' <'dflt' > ) ]
Lookup: 258 0 0 "'kern' Horizontales Kerning in Latin lookup 0"  {"'kern' Horizontales Kerning in Latin lookup 0 subtable"  } ['kern' ('latn' <'dflt' > ) ]
DEI: 0
LangName: 1033 
Encoding: AdobeStandard
UnicodeInterp: none
NameList: Adobe Glyph List
DisplaySize: -24
AntiAlias: 1
FitToEm: 1
WinInfo: 0 32 16
BeginPrivate: 7
BlueValues 32 [-13 1 419 433 686 718 748 748 ]
OtherBlues 12 [-205 -187 ]
StdHW 4 [86]
StemSnapH 32 [20 67 77 81 86 91 444 455 467 ]
StdVW 4 [91]
StemSnapV 11 [84 91 96 ]
BlueScale 9 0.0309375
EndPrivate
TeXData: 1 0 0 368050 184025 122683 429916 1048576 122683 783286 444596 497025 792723 393216 433062 380633 303038 157286 324010 404750 52429 2506097 1059062 262144
BeginChars: 327 182

StartChar: .notdef
Encoding: 0 -1 0
AltUni2: 00fffd.ffffffff.0
Width: 500
HStem: 0 50<100 400> 483 50<100 400>
VStem: 50 50<50 483> 400 50<50 483>
LayerCount: 2
Fore
SplineSet
3.00879 0 m 1,0,-1
 96.9912 533 l 1,1,-1
 496.991 533 l 1,2,-1
 403.009 0 l 1,3,-1
 3.00879 0 l 1,0,-1
61.8252 50 m 1,4,-1
 361.825 50 l 1,5,-1
 438.175 483 l 1,6,-1
 138.175 483 l 1,7,-1
 61.8252 50 l 1,4,-1
EndSplineSet
EndChar

StartChar: exclam
Encoding: 33 33 4
Width: 218
Flags: W
HStem: 0 21G<102.665 117.335> 673 20G<74 155>
VStem: 74 81<252 693>
LayerCount: 2
Fore
SplineSet
135.098 693 m 1,0,-1
 216.098 693 l 1,1,-1
 138.337 252 l 1,2,-1
 58.3369 252 l 1,3,-1
 135.098 693 l 1,0,-1
1.48242 60 m 0,4,5
 6.24316 87 6.24316 87 27.0205 102.75 c 128,-1,6
 47.7979 118.5 47.7979 118.5 69.7979 118.5 c 128,-1,7
 91.791 118.5 91.791 118.5 107.196 103.75 c 128,-1,8
 122.597 89.0049 122.597 89.0049 117.835 62 c 0,9,10
 112.723 33.0049 112.723 33.0049 91.8125 16.5 c 128,-1,11
 70.9023 0 70.9023 0 48.9023 0 c 128,-1,12
 26.9023 0 26.9023 0 11.7236 16 c 128,-1,13
 -3.45508 32 -3.45508 32 1.48242 60 c 0,4,5
EndSplineSet
EndChar

StartChar: quotedbl
Encoding: 34 34 5
Width: 340
Flags: W
HStem: 558 197.5<248 256.5>
LayerCount: 2
Fore
SplineSet
230.588 558 m 1,0,1
 229.881 571.005 229.881 571.005 217.254 627 c 128,-1,2
 204.628 682.995 204.628 682.995 207.45 699 c 0,3,4
 212.033 724.995 212.033 724.995 232.224 740.25 c 128,-1,5
 252.418 755.505 252.418 755.505 273.912 755.5 c 128,-1,6
 295.418 755.5 295.418 755.5 310.724 740.25 c 128,-1,7
 326.033 724.995 326.033 724.995 320.921 696 c 1,8,9
 312.689 672 312.689 672 299.634 649 c 128,-1,10
 286.595 626.034 286.595 626.034 278.05 614.5 c 128,-1,11
 269.582 603.069 269.582 603.069 251.996 583 c 128,-1,12
 234.47 563 234.47 563 230.588 558 c 1,0,1
56.5879 558 m 1,13,14
 55.8809 571.005 55.8809 571.005 43.2539 627 c 128,-1,15
 30.6279 682.995 30.6279 682.995 33.4502 699 c 0,16,17
 38.0332 724.995 38.0332 724.995 58.2236 740.25 c 128,-1,18
 78.418 755.505 78.418 755.505 99.9121 755.5 c 128,-1,19
 121.418 755.5 121.418 755.5 136.724 740.25 c 128,-1,20
 152.033 724.995 152.033 724.995 146.921 696 c 1,21,22
 138.689 672 138.689 672 125.634 649 c 128,-1,23
 112.595 626.034 112.595 626.034 104.05 614.5 c 128,-1,24
 95.582 603.069 95.582 603.069 77.9961 583 c 128,-1,25
 60.4697 563 60.4697 563 56.5879 558 c 1,13,14
EndSplineSet
EndChar

StartChar: numbersign
Encoding: 35 35 6
Width: 455
Flags: W
HStem: 219 87<47 105 182 272 350 408> 389 91<47 105 182 272 350 408>
VStem: 105 77<70 219 306 389 480 620> 272 78<70 219 306 389 480 620>
LayerCount: 2
Fore
SplineSet
153.49 620 m 1,0,-1
 230.49 620 l 1,1,-1
 205.804 480 l 1,2,-1
 295.804 480 l 1,3,-1
 320.49 620 l 1,4,-1
 398.49 620 l 1,5,-1
 373.804 480 l 1,6,-1
 431.804 480 l 1,7,-1
 415.759 389 l 1,8,-1
 357.759 389 l 1,9,-1
 343.123 306 l 1,10,-1
 401.123 306 l 1,11,-1
 385.783 219 l 1,12,-1
 327.783 219 l 1,13,-1
 301.51 70 l 1,14,-1
 223.51 70 l 1,15,-1
 249.783 219 l 1,16,-1
 159.783 219 l 1,17,-1
 133.51 70 l 1,18,-1
 56.5098 70 l 1,19,-1
 82.7832 219 l 1,20,-1
 24.7832 219 l 1,21,-1
 40.123 306 l 1,22,-1
 98.123 306 l 1,23,-1
 112.935 390 l 1,24,-1
 54.9346 390 l 1,25,-1
 70.8037 480 l 1,26,-1
 128.804 480 l 1,27,-1
 153.49 620 l 1,0,-1
189.759 389 m 1,28,-1
 175.123 306 l 1,29,-1
 265.123 306 l 1,30,-1
 279.759 389 l 1,31,-1
 189.759 389 l 1,28,-1
EndSplineSet
EndChar

StartChar: dollar
Encoding: 36 36 7
Width: 733
Flags: W
VStem: 169.48 398.28<111 237>
LayerCount: 2
Fore
SplineSet
399.747 750 m 1,0,-1
 474.527 750 l 1,1,-1
 450.567 682 l 1,2,3
 517.362 682 517.362 682 556.821 640 c 1,4,-1
 505.01 578 l 1,5,6
 472.082 602.19 472.082 602.19 434.771 608.52 c 128,-1,7
 397.457 614.85 397.457 614.85 361.012 596.67 c 128,-1,8
 324.581 578.49 324.581 578.49 303.429 534.5 c 1,9,10
 297.37 506.949 297.37 506.949 304.935 485.36 c 128,-1,11
 312.495 463.74 312.495 463.74 332.216 449.47 c 128,-1,12
 351.876 435.239 351.876 435.239 369.611 426.53 c 128,-1,13
 387.192 417.904 387.192 417.904 413.171 408.72 c 128,-1,14
 438.981 399.611 438.981 399.611 447.204 395.75 c 0,15,16
 504.318 368.891 504.318 368.891 528.667 332.25 c 128,-1,17
 553.046 295.605 553.046 295.605 546.072 237 c 0,18,19
 531.537 156.27 531.537 156.27 479.062 102.99 c 128,-1,20
 426.588 49.71 426.588 49.71 344.748 31 c 1,21,-1
 341.973 -30 l 1,22,-1
 267.202 -30 l 1,23,-1
 284.233 27 l 1,24,25
 202.672 31.5293 202.672 31.5293 125.574 111 c 1,26,-1
 177.611 180 l 1,27,28
 201.204 150.1 201.204 150.1 232.072 132.03 c 128,-1,29
 262.97 113.953 262.97 113.953 296.938 109.77 c 128,-1,30
 330.906 105.586 330.906 105.586 367.283 121.37 c 128,-1,31
 403.667 137.157 403.667 137.157 434.597 173 c 1,32,33
 468.072 223.505 468.072 223.505 457.709 261.26 c 128,-1,34
 447.354 299.025 447.354 299.025 400.873 321 c 0,35,36
 362.507 333.603 362.507 333.603 338.477 343.25 c 128,-1,37
 314.593 352.838 314.593 352.838 285.021 371.12 c 128,-1,38
 255.441 389.406 255.441 389.406 240.709 410.13 c 128,-1,39
 225.958 430.861 225.958 430.861 218.834 463.58 c 128,-1,40
 211.732 496.295 211.732 496.295 219.63 537 c 0,41,42
 231.453 597.93 231.453 597.93 281.739 635.45 c 128,-1,43
 332.034 672.965 332.034 672.965 400.717 682 c 1,44,-1
 399.747 750 l 1,0,-1
EndSplineSet
EndChar

StartChar: percent
Encoding: 37 37 8
Width: 560
Flags: W
HStem: 515 57<129.166 168.989>
VStem: 40 67<449.51 494.014> 190 69<449.716 495.66> 304 67<137.599 183.607> 454 70<138.51 184.529>
LayerCount: 2
Fore
SplineSet
135.433 473 m 0,0,1
 130.672 446 130.672 446 149.645 434.5 c 128,-1,2
 168.612 422.996 168.612 422.996 191.145 434.5 c 128,-1,3
 213.672 446.002 213.672 446.002 218.609 474 c 0,4,5
 222.137 494.004 222.137 494.004 210.987 504.5 c 128,-1,6
 199.833 515 199.833 515 184.339 515 c 128,-1,7
 168.844 515 168.844 515 153.811 503.5 c 128,-1,8
 138.783 491.999 138.783 491.999 135.433 473 c 0,0,1
68.2568 472 m 0,9,10
 74.252 506 74.252 506 94.4834 530 c 128,-1,11
 114.72 554 114.72 554 140.802 563 c 128,-1,12
 166.884 572 166.884 572 195.389 572 c 128,-1,13
 223.884 572 223.884 572 246.185 559.5 c 128,-1,14
 268.477 547.005 268.477 547.005 280.249 523 c 128,-1,15
 292.022 499 292.022 499 286.728 469 c 0,16,17
 281.086 437.005 281.086 437.005 260.677 412 c 128,-1,18
 240.263 386.995 240.263 386.995 213.696 375.25 c 128,-1,19
 187.12 363.5 187.12 363.5 158.625 363.5 c 128,-1,20
 130.109 363.5 130.109 363.5 107.521 374.25 c 128,-1,21
 84.9219 385.005 84.9219 385.005 73.4121 410.5 c 128,-1,22
 61.9033 436 61.9033 436 68.2568 472 c 0,9,10
344.419 161 m 0,23,24
 339.658 134 339.658 134 358.719 123 c 128,-1,25
 377.786 112.002 377.786 112.002 400.307 123.5 c 128,-1,26
 422.84 135.005 422.84 135.005 427.595 162 c 0,27,28
 432.179 187.995 432.179 187.995 413.531 198.5 c 128,-1,29
 394.884 208.996 394.884 208.996 371.942 198 c 128,-1,30
 349.003 187 349.003 187 344.419 161 c 0,23,24
277.242 160 m 0,31,32
 283.413 194.995 283.413 194.995 304.146 219 c 128,-1,33
 324.878 243 324.878 243 350.42 251.75 c 128,-1,34
 375.978 260.5 375.978 260.5 404.463 260.5 c 128,-1,35
 432.968 260.5 432.968 260.5 455.215 247.75 c 128,-1,36
 477.474 234.993 477.474 234.993 489.823 211.5 c 128,-1,37
 502.179 187.995 502.179 187.995 496.714 157 c 0,38,39
 491.07 124.995 491.07 124.995 470.251 100.5 c 128,-1,40
 449.436 76.0088 449.436 76.0088 422.771 63.75 c 128,-1,41
 396.126 51.5 396.126 51.5 367.611 51.5 c 128,-1,42
 339.111 51.5 339.111 51.5 317.007 62.25 c 128,-1,43
 294.902 73.0049 294.902 73.0049 282.898 98.5 c 128,-1,44
 270.895 124 270.895 124 277.242 160 c 0,31,32
505.597 559 m 1,45,-1
 552.193 500 l 1,46,-1
 40.1992 52 l 1,47,-1
 -6.39746 111 l 1,48,-1
 505.597 559 l 1,45,-1
EndSplineSet
EndChar

StartChar: ampersand
Encoding: 38 38 9
Width: 520
Flags: W
HStem: -8.28999 82.34<177.212 273.57> 325.99 84.52<208.917 372.97 455.78 510.44> 545.43 86.07<229.344 293.592>
VStem: 8.99004 83.2401<172.385 248.768> 95.12 87.59<444.055 502.63> 372.97 82.81<167.265 357.409>
LayerCount: 2
Fore
SplineSet
520.38 410.51 m 2,0,-1
 527.88 410.51 l 1,1,-1
 512.977 325.99 l 1,2,-1
 458.316 325.99 l 1,3,4
 443.052 238.51 443.052 238.51 437.867 209.11 c 0,5,6
 427.986 153.073 427.986 153.073 387.064 99.9199 c 0,7,8
 346.794 47.6299 346.794 47.6299 289.231 19.54 c 0,9,10
 232.205 -8.29004 232.205 -8.29004 172.624 -8.29004 c 0,11,12
 112.834 -8.29004 112.834 -8.29004 68.6631 21.3096 c 128,-1,13
 24.6328 50.7998 24.6328 50.7998 2.83887 101.93 c 128,-1,14
 -18.9658 153.057 -18.9658 153.057 -8.73145 211.1 c 128,-1,15
 1.50098 269.135 1.50098 269.135 38.2705 321.08 c 128,-1,16
 75.0479 373.04 75.0479 373.04 126.439 402.91 c 1,17,18
 116.989 435.631 116.989 435.631 121.435 460.84 c 0,19,20
 136.338 545.365 136.338 545.365 204.38 594.43 c 0,21,22
 255.78 631.495 255.78 631.495 310.546 631.5 c 0,23,24
 346.771 631.5 346.771 631.5 379.395 615.84 c 128,-1,25
 412.011 600.207 412.011 600.207 429.914 568.54 c 1,26,-1
 357.702 507.05 l 1,27,28
 339.663 545.43 339.663 545.43 303.31 545.43 c 128,-1,29
 266.949 545.43 266.949 545.43 241.922 525.48 c 128,-1,30
 216.903 505.525 216.903 505.525 212.184 478.76 c 128,-1,31
 207.459 451.965 207.459 451.965 214.177 431.42 c 128,-1,32
 220.886 410.855 220.886 410.855 262.31 410.85 c 2,33,-1
 396.149 410.85 l 2,34,35
 481.413 410.51 481.413 410.51 520.38 410.51 c 2,0,-1
229.227 325.99 m 2,36,37
 202.286 326.005 202.286 326.005 183.747 325.37 c 0,38,39
 165.491 324.73 165.491 324.73 152.595 324.73 c 0,40,41
 132.197 324.73 132.197 324.73 106.67 286.71 c 128,-1,42
 81.1436 248.7 81.1436 248.7 73.9287 207.81 c 128,-1,43
 66.7197 166.93 66.7197 166.93 86.4062 133.45 c 0,44,45
 121.338 74.0498 121.338 74.0498 191.383 74.0498 c 0,46,47
 237.883 74.0498 237.883 74.0498 276.36 100.07 c 128,-1,48
 314.932 126.163 314.932 126.163 333.111 157.41 c 128,-1,49
 351.299 188.645 351.299 188.645 353.902 203.41 c 0,50,51
 355.626 213.24 355.626 213.24 375.507 325.99 c 1,52,-1
 229.227 325.99 l 2,36,37
EndSplineSet
EndChar

StartChar: quotesingle
Encoding: 169 39 10
Width: 188
Flags: W
HStem: 493 199<118.455 155.545>
VStem: 89.3174 112<611.882 656.116 634 634>
LayerCount: 2
Fore
SplineSet
118.455 493 m 5,0,1
 78.7383 574 78.7383 574 89.3174 634 c 4,2,3
 93.9014 659.995 93.9014 659.995 114.224 676 c 132,-1,4
 134.544 692 134.544 692 155.545 692 c 132,-1,5
 176.546 692 176.546 692 191.488 677.5 c 132,-1,6
 206.436 662.995 206.436 662.995 201.317 634 c 4,7,8
 195.322 600 195.322 600 169.27 560 c 132,-1,9
 143.21 519.995 143.21 519.995 118.455 493 c 5,0,1
EndSplineSet
EndChar

StartChar: parenleft
Encoding: 40 40 11
Width: 268
Flags: W
VStem: 40 94<54.01 567.19>
LayerCount: 2
Fore
SplineSet
9.75977 148 m 2,0,-1
 41.2344 326.5 l 1,1,-1
 72.1797 502 l 2,2,3
 89.4219 599.785 89.4219 599.785 159.891 670.5 c 0,4,5
 233.243 744.104 233.243 744.104 309.317 775 c 1,6,-1
 291.155 672 l 1,7,8
 185.067 609.09 185.067 609.09 166.709 505 c 2,9,-1
 135.499 328 l 1,10,-1
 103.76 148 l 2,11,12
 83.7646 34.5996 83.7646 34.5996 167.432 -24 c 1,13,-1
 147.683 -136 l 1,14,15
 84.6777 -102 84.6777 -102 34.0791 -26 c 0,16,17
 -9.36816 39.5498 -9.36816 39.5498 9.75977 148 c 2,0,-1
EndSplineSet
EndChar

StartChar: parenright
Encoding: 41 41 12
Width: 295
Flags: W
VStem: 147 95<62.471 571>
LayerCount: 2
Fore
SplineSet
211.672 150 m 2,0,1
 193.863 49.0049 193.863 49.0049 125.579 -23.5 c 128,-1,2
 57.2959 -95.9951 57.2959 -95.9951 -27.4053 -134 c 1,3,-1
 -7.65625 -22 l 1,4,5
 96.8545 37.5801 96.8545 37.5801 116.672 150 c 2,6,-1
 148.41 330 l 1,7,-1
 179.62 507 l 2,8,9
 198.095 611.775 198.095 611.775 115.243 675 c 1,10,-1
 133.405 778 l 1,11,12
 207.053 742 207.053 742 249.391 673 c 128,-1,13
 291.719 604 291.719 604 274.268 505 c 2,14,-1
 243.234 329 l 1,15,-1
 211.672 150 l 2,0,1
EndSplineSet
EndChar

StartChar: asterisk
Encoding: 42 42 13
Width: 212
Flags: W
HStem: 678 38<37 73.3303 146 174>
VStem: 86 40<722.4 755>
LayerCount: 2
Fore
SplineSet
173.295 678 m 1,0,-1
 145.295 678 l 2,1,2
 133.295 678 133.295 678 143.179 666 c 2,3,-1
 169.536 634 l 1,4,-1
 156.539 617 l 1,5,-1
 138.423 605 l 1,6,-1
 104.476 645 l 1,7,-1
 100.828 647 l 1,8,-1
 95.4756 645 l 1,9,-1
 48.4229 605 l 1,10,-1
 32.5391 617 l 1,11,-1
 26.5361 634 l 1,12,-1
 66.1787 666 l 2,13,14
 71.8857 670.009 71.8857 670.009 70.1777 674.5 c 128,-1,15
 68.4639 679.004 68.4639 679.004 63.2949 678 c 1,16,-1
 36.2949 678 l 1,17,-1
 34.4688 696 l 1,18,-1
 42.8184 715 l 1,19,-1
 77.8184 715 l 2,20,21
 80.8096 715 80.8096 715 87.4648 721.5 c 128,-1,22
 94.1094 727.989 94.1094 727.989 94.9922 733 c 2,23,-1
 98.8721 755 l 1,24,-1
 119.577 759 l 1,25,-1
 138.872 755 l 1,26,-1
 134.992 733 l 2,27,28
 133.936 727.005 133.936 727.005 138.965 721.5 c 128,-1,29
 143.99 716 143.99 716 147.995 716 c 2,30,-1
 179.995 716 l 1,31,-1
 182.469 696 l 1,32,-1
 173.295 678 l 1,0,-1
EndSplineSet
EndChar

StartChar: plus
Encoding: 43 43 14
Width: 495
Flags: W
HStem: 321 80<64 209 290 431>
VStem: 209 81<160 320 401 549>
LayerCount: 2
Fore
SplineSet
425.093 321 m 1,0,-1
 284.093 321 l 1,1,-1
 255.704 160 l 1,2,-1
 174.704 160 l 1,3,-1
 202.917 320 l 1,4,-1
 57.917 320 l 1,5,-1
 71.6699 398 l 1,6,-1
 216.67 398 l 1,7,-1
 243.296 549 l 1,8,-1
 323.296 549 l 1,9,-1
 297.199 401 l 1,10,-1
 439.199 401 l 1,11,-1
 425.093 321 l 1,0,-1
EndSplineSet
EndChar

StartChar: comma
Encoding: 44 44 15
Width: 154
Flags: W
LayerCount: 2
Fore
SplineSet
25.9512 69 m 0,0,1
 30.5342 94.9951 30.5342 94.9951 50.7246 110.25 c 128,-1,2
 70.9189 125.505 70.9189 125.505 92.4131 125.5 c 128,-1,3
 113.919 125.5 113.919 125.5 129.225 110.25 c 128,-1,4
 144.534 94.9951 144.534 94.9951 139.422 66 c 0,5,6
 135.896 46.0049 135.896 46.0049 123.81 28.5 c 128,-1,7
 111.739 11.0186 111.739 11.0186 101.784 0 c 128,-1,8
 91.8584 -10.9873 91.8584 -10.9873 70.7002 -26 c 128,-1,9
 49.5605 -41 49.5605 -41 45.2021 -43 c 128,-1,10
 40.8496 -45 40.8496 -45 23.0869 -55 c 1,11,12
 29.1592 -48.9805 29.1592 -48.9805 36.9961 -38.5 c 128,-1,13
 44.8066 -28.0547 44.8066 -28.0547 52.5518 -15.5 c 128,-1,14
 60.2344 -3.04688 60.2344 -3.04688 65.1064 7.5 c 128,-1,15
 69.9639 18.0107 69.9639 18.0107 70.0166 24 c 128,-1,16
 70.0742 30 70.0742 30 62.7217 28 c 0,17,18
 44.833 23.002 44.833 23.002 33.6318 36 c 128,-1,19
 22.4258 49.0049 22.4258 49.0049 25.9512 69 c 0,0,1
EndSplineSet
EndChar

StartChar: hyphen
Encoding: 45 45 16
Width: 364
Flags: W
HStem: 222 81<49 438>
LayerCount: 2
Fore
SplineSet
309.858 222 m 1,0,-1
 41.8584 222 l 1,1,-1
 56.1416 303 l 1,2,-1
 324.142 303 l 1,3,-1
 309.858 222 l 1,0,-1
EndSplineSet
EndChar

StartChar: period
Encoding: 46 46 17
Width: 190
Flags: W
HStem: 0 21G<65.665 80.335>
LayerCount: 2
Fore
SplineSet
15.1318 60 m 0,0,1
 19.8936 87 19.8936 87 40.6699 102.75 c 128,-1,2
 61.4473 118.5 61.4473 118.5 83.4473 118.5 c 128,-1,3
 105.441 118.5 105.441 118.5 120.847 103.75 c 128,-1,4
 136.247 89.0049 136.247 89.0049 131.485 62 c 0,5,6
 126.372 33.0049 126.372 33.0049 105.462 16.5 c 128,-1,7
 84.5527 0 84.5527 0 62.5527 0 c 128,-1,8
 40.5527 0 40.5527 0 25.374 16 c 128,-1,9
 10.1953 32 10.1953 32 15.1318 60 c 0,0,1
EndSplineSet
EndChar

StartChar: slash
Encoding: 47 47 18
Width: 360
Flags: W
HStem: 0 21G<2 87> 684 20G<276 356>
VStem: 2 354<0 704>
LayerCount: 2
Fore
SplineSet
39.9326 0 m 1,0,-1
 -60.0674 0 l 1,1,-1
 338.067 704 l 1,2,-1
 433.067 704 l 1,3,-1
 39.9326 0 l 1,0,-1
EndSplineSet
EndChar

StartChar: zero
Encoding: 48 48 19
Width: 569
Flags: W
HStem: -10.4121 81.9824<213.494 362.958> 637.586 81.9824<213.494 362.958>
VStem: 46.0312 485.156<169.772 210.457 190.052 190.052>
LayerCount: 2
Fore
SplineSet
470.7 503.23 m 0,0,1
 470.7 562.226 470.7 562.226 432.804 598.899 c 128,-1,2
 394.894 635.586 394.894 635.586 338.177 635.586 c 128,-1,3
 281.38 635.586 281.38 635.586 231.318 599.255 c 128,-1,4
 181.238 562.91 181.238 562.91 160.886 508.353 c 0,5,6
 107.255 364.576 107.255 364.576 106.592 202.725 c 0,7,8
 106.548 146.207 106.548 146.207 144.141 109.888 c 128,-1,9
 181.734 73.5703 181.734 73.5703 238.455 73.5703 c 128,-1,10
 295.258 73.5703 295.258 73.5703 345.669 109.685 c 128,-1,11
 396.089 145.808 396.089 145.808 416.533 201.968 c 0,12,13
 470.7 350.762 470.7 350.762 470.7 503.23 c 0,0,1
223.931 -12.4121 m 128,-1,15
 134.165 -12.4121 134.165 -12.4121 74.5458 44.7724 c 128,-1,16
 14.9263 101.957 14.9263 101.957 14.9263 202.79 c 0,17,18
 14.9263 359.489 14.9263 359.489 73.1617 519.786 c 0,19,20
 105.429 608.602 105.429 608.602 184.231 665.082 c 128,-1,21
 263.043 721.568 263.043 721.568 352.728 721.568 c 128,-1,22
 442.495 721.568 442.495 721.568 502.394 663.84 c 128,-1,23
 562.292 606.112 562.292 606.112 562.292 506.364 c 0,24,25
 562.292 347.656 562.292 347.656 504.055 189.361 c 0,26,27
 471.639 101.251 471.639 101.251 392.597 44.3969 c 128,-1,14
 313.618 -12.4121 313.618 -12.4121 223.931 -12.4121 c 128,-1,15
EndSplineSet
EndChar

StartChar: one
Encoding: 49 49 20
Width: 289
Flags: W
HStem: 0 21G<169.5 249.5>
VStem: 169.5 80<0 510.18>
LayerCount: 2
Fore
SplineSet
191.841 503.433 m 1,0,-1
 166.404 480.409 l 1,1,-1
 108.709 541.096 l 1,2,-1
 317.128 731.47 l 1,3,-1
 187.708 0 l 1,4,-1
 102.631 0 l 1,5,-1
 191.841 503.433 l 1,0,-1
EndSplineSet
EndChar

StartChar: two
Encoding: 50 50 21
Width: 483
Flags: W
HStem: 0 81<161.648 438.81> 626.5 81.5<186.851 359.192>
VStem: 353.5 74.3209<484.264 578.065>
LayerCount: 2
Fore
SplineSet
313.049 623 m 0,0,1
 248.791 623 248.791 623 182.357 536.805 c 1,2,-1
 138.938 601.573 l 1,3,4
 138.711 601.911 138.711 601.911 138.938 602.201 c 1,5,6
 197.704 662.215 197.704 662.215 239.68 686.884 c 128,-1,7
 281.565 711.5 281.565 711.5 323.26 711.5 c 128,-1,8
 364.819 711.5 364.819 711.5 394.129 701.29 c 0,9,10
 483.957 670.001 483.957 670.001 483.957 570.472 c 0,11,12
 483.957 501.887 483.957 501.887 449.036 448.321 c 0,13,14
 426.033 413.034 426.033 413.034 340.972 315.602 c 2,15,-1
 139.213 84.5 l 1,16,-1
 411.652 84.5 l 1,17,-1
 412.636 83.3212 l 1,18,-1
 397.473 0 l 1,19,-1
 396.981 0 l 1,20,-1
 -47.7447 0 l 1,21,-1
 308.07 399.425 l 2,22,23
 368.915 468.4 368.915 468.4 385.134 492.594 c 128,-1,24
 401.288 516.689 401.288 516.689 401.288 550.128 c 0,25,26
 401.288 596.553 401.288 596.553 362.698 613.992 c 0,27,28
 342.763 623 342.763 623 313.049 623 c 0,0,1
EndSplineSet
EndChar

StartChar: three
Encoding: 51 51 22
Width: 510
Flags: W
HStem: -12.95 78.9764<155.735 288.801> 614.716 77.5944<92.92 379.776>
VStem: 404.941 77.5986<148.319 276.483>
LayerCount: 2
Fore
SplineSet
322 422 m 1,8,9
 473 389.293 473 389.293 473 255.045 c 128,-1,13
 473 120.798 473 120.798 382 46 c 0,14,15
 307.179 -15.5 307.179 -15.5 188.589 -15.5 c 0,16,17
 102 -15.5 102 -15.5 21 52 c 1,19,-1
 67 112 l 1,21,22
 152.069 68 152.069 68 192 68 c 0,23,24
 287.347 68 287.347 68 348 124 c 0,27,28
 388 160.931 388 160.931 388 252 c 0,29,30
 388 364 388 364 216 364 c 2,33,-1
 167 364 l 1,35,-1
 394 612 l 1,0,-1
 139 612 l 1,2,-1
 153 696 l 1,3,-1
 566 696 l 1,7,-1
 322 422 l 1,8,9
EndSplineSet
EndChar

StartChar: four
Encoding: 52 52 23
Width: 505
Flags: W
HStem: 0 21G<325.5 408.19> 157.5 79.4004<163.06 325.5 408.19 492.18>
VStem: 327.51 79.7097<0 157.49 237.91 361.52>
LayerCount: 2
Fore
SplineSet
451.22 721.612 m 1,0,-1
 507.347 676.384 l 1,1,-1
 144.586 238.4 l 1,2,-1
 304.588 238.4 l 1,3,-1
 326.343 361.78 l 1,4,-1
 326.648 362.456 l 1,5,-1
 432.599 495.049 l 1,6,-1
 387.522 239.41 l 1,7,-1
 472.482 239.41 l 1,8,-1
 457.774 155.99 l 1,9,-1
 373.783 155.99 l 1,10,-1
 346.014 0 l 1,11,-1
 260.276 0 l 1,12,-1
 288.048 156 l 1,13,-1
 -21.8743 156 l 1,14,-1
 451.22 721.612 l 1,0,-1
EndSplineSet
EndChar

StartChar: five
Encoding: 53 53 24
Width: 408
Flags: W
HStem: -11.211 83.1913<112.367 280.461> 361.886 73.0909<96.889 233.865> 622.827 80.1332<122.341 332.209>
VStem: 301.959 82.6494<119.914 293.388>
LayerCount: 2
Fore
SplineSet
30.4609 109.377 m 5,0,1
 70.1299 73.4951 70.1299 73.4951 113.091 73.4951 c 4,2,3
 177.792 73.4951 177.792 73.4951 222.348 114.788 c 4,4,5
 279.71 167.949 279.71 167.949 279.71 242.647 c 4,6,7
 279.71 286.684 279.71 286.684 253.461 318.414 c 4,8,9
 218.752 360.371 218.752 360.371 159.255 360.371 c 6,10,-1
 9.85352 360.371 l 5,11,-1
 112.101 702.96 l 5,12,-1
 113.231 702.96 l 5,13,-1
 114.332 702.96 l 5,14,-1
 113.231 702.96 l 5,15,-1
 395.174 702.96 l 5,16,-1
 396.979 702.96 l 5,17,-1
 382.314 621.312 l 5,18,-1
 172.289 621.312 l 5,19,-1
 114.659 436.492 l 5,20,-1
 168.826 436.492 l 6,21,22
 275.796 436.492 275.796 436.492 321.229 380.837 c 132,-1,23
 366.663 325.183 366.663 325.183 366.663 256.531 c 4,24,25
 366.663 235.377 366.663 235.377 362.65 212.625 c 4,26,27
 345.503 115.375 345.503 115.375 275.046 51.3252 c 132,-1,28
 204.59 -12.7256 204.59 -12.7256 107.407 -12.7256 c 4,29,30
 9.0791 -12.7256 9.0791 -12.7256 -45.7285 43.8838 c 5,31,-1
 30.4609 109.377 l 5,0,1
EndSplineSet
EndChar

StartChar: six
Encoding: 54 54 25
Width: 527
VWidth: 990
Flags: W
HStem: -9.34863 80.2949<186.353 338.002> 351.209 80.8516<216.698 343.236>
VStem: 43.2031 77.8975<130.994 268.475> 267.739 84.1201<628.957 713.077> 403.783 79.502<131.036 287.264>
LayerCount: 2
Fore
SplineSet
12.5133 168.687 m 0,0,1
 12.5133 189.335 12.5133 189.335 16.4542 211.681 c 0,2,3
 24.279 256.051 24.279 256.051 63.6592 315.11 c 2,4,-1
 330.212 714.854 l 1,5,-1
 330.628 715.077 l 1,6,-1
 419.334 715.077 l 1,7,-1
 222.096 425.612 l 1,8,9
 245.453 434.061 245.453 434.061 277.406 434.061 c 0,10,11
 368.579 434.061 368.579 434.061 422.902 370.046 c 0,12,13
 464.422 321.118 464.422 321.118 464.422 254.036 c 0,14,15
 464.422 233.363 464.422 233.363 460.476 210.987 c 0,16,17
 443.757 116.174 443.757 116.174 367.136 52.4129 c 128,-1,18
 290.514 -11.3486 290.514 -11.3486 199.461 -11.3486 c 128,-1,19
 108.409 -11.3486 108.409 -11.3486 54.0622 52.6715 c 0,20,21
 12.5133 101.616 12.5133 101.616 12.5133 168.687 c 0,0,1
155.021 311.283 m 0,22,23
 95.7901 262.175 95.7901 262.175 95.7901 183.224 c 0,24,25
 95.7901 140.924 95.7901 140.924 121.393 111.642 c 0,26,27
 155.226 72.9463 155.226 72.9463 212.746 72.9463 c 128,-1,28
 270.27 72.9463 270.27 72.9463 318.243 111.562 c 0,29,30
 379.231 160.654 379.231 160.654 379.231 237.621 c 0,31,32
 379.231 278.652 379.231 278.652 355.269 308.984 c 0,33,34
 323.491 349.209 323.491 349.209 262.127 349.209 c 128,-1,35
 200.763 349.209 200.763 349.209 155.021 311.283 c 0,22,23
EndSplineSet
EndChar

StartChar: seven
Encoding: 55 55 26
Width: 438
Flags: W
HStem: 0 21.21G<5.05 93.93> 615.09 81.81<31.31 289.87>
VStem: 5.05 415.11<0 696.9>
LayerCount: 2
Fore
SplineSet
92.751 696.9 m 1,0,-1
 481.602 696.9 l 1,1,-1
 32.4883 0 l 1,2,-1
 -65.4814 0 l 1,3,-1
 324.767 612.06 l 1,4,-1
 66.2061 612.06 l 1,5,-1
 92.751 696.9 l 1,0,-1
EndSplineSet
EndChar

StartChar: eight
Encoding: 56 56 27
Width: 459
Flags: W
HStem: -3.40738 76.9589<179.93 273.672> 335.591 52.3253<185.248 264.421> 610.913 79.4656<185.248 264.421>
VStem: 14.4775 81.6919<157.565 251.588> 30.6042 83.9201<460.529 539.943> 335.175 78.7736<460.529 539.929> 357.46 79.7709<157.565 251.575>
LayerCount: 2
Fore
SplineSet
289.192 704.396 m 128,-1,1
 370.16 704.396 370.16 704.396 417.327 646.92 c 128,-1,2
 464.495 589.457 464.495 589.457 450.655 510.965 c 128,-1,3
 436.816 432.481 436.816 432.481 376.126 376.41 c 1,4,5
 439.262 311.627 439.262 311.627 422.655 217.454 c 128,-1,6
 406.052 123.287 406.052 123.287 331.687 59.9102 c 128,-1,7
 257.314 -3.47656 257.314 -3.47656 168.031 -3.47656 c 128,-1,8
 78.7432 -3.47656 78.7432 -3.47656 26.7305 59.9102 c 128,-1,9
 -25.291 123.281 -25.291 123.281 -8.96289 215.857 c 128,-1,10
 7.35938 308.422 7.35938 308.422 89.2471 372.833 c 1,11,12
 45.1846 429.648 45.1846 429.648 59.2783 509.553 c 128,-1,13
 73.3652 589.448 73.3652 589.448 140.801 646.92 c 128,-1,0
 208.221 704.396 208.221 704.396 289.192 704.396 c 128,-1,1
274.736 617.084 m 128,-1,15
 228.598 617.084 228.598 617.084 190.185 584.318 c 128,-1,16
 151.759 551.561 151.759 551.561 143.598 505.275 c 128,-1,17
 135.441 459.013 135.441 459.013 162.156 425.421 c 128,-1,18
 188.886 391.835 188.886 391.835 235.02 391.835 c 128,-1,19
 281.156 391.835 281.156 391.835 319.746 425.421 c 128,-1,20
 358.317 459.008 358.317 459.008 366.477 505.275 c 128,-1,21
 374.637 551.554 374.637 551.554 347.753 584.318 c 128,-1,14
 320.878 617.079 320.878 617.079 274.736 617.084 c 128,-1,15
227.68 338.98 m 132,-1,23
 173.041 338.98 173.041 338.98 127.558 300.208 c 132,-1,24
 82.0664 261.43 82.0664 261.43 72.3994 206.643 c 132,-1,25
 62.7383 151.851 62.7383 151.851 94.5596 113.067 c 132,-1,26
 126.369 74.2949 126.369 74.2949 181.008 74.2949 c 132,-1,27
 235.644 74.2949 235.644 74.2949 281.148 113.067 c 132,-1,28
 326.672 151.872 326.672 151.872 336.331 206.643 c 132,-1,29
 345.988 261.418 345.988 261.418 314.146 300.208 c 132,-1,22
 282.317 338.988 282.317 338.988 227.68 338.98 c 132,-1,23
EndSplineSet
EndChar

StartChar: nine
Encoding: 57 57 28
Width: 474
VWidth: 990
Flags: W
HStem: 10.179 20.58G<146.952 147.553 146.952 229.389> 308.457 80.0327<139.733 277.497> 629.417 79.5781<150.538 319.046>
VStem: 34.1272 78.8173<423.632 603.117> 355.953 77.509<451.698 603.86>
LayerCount: 2
Fore
SplineSet
296.093 713.077 m 128,-1,1
 379.646 713.077 379.646 713.077 429.413 654.453 c 128,-1,2
 479.18 595.829 479.18 595.829 463.823 508.741 c 0,3,4
 456.354 466.378 456.354 466.378 444.38 447.153 c 2,5,-1
 165.882 0 l 1,6,-1
 68.7617 0 l 5,7,-1
 267.162 314.275 l 5,8,9
 244.19 304.365 244.19 304.365 224.025 304.365 c 0,10,11
 140.463 304.365 140.463 304.365 90.7188 362.984 c 128,-1,12
 40.9746 421.602 40.9746 421.602 56.3398 508.741 c 128,-1,13
 71.7012 595.862 71.7012 595.862 142.129 654.47 c 128,-1,0
 212.558 713.077 212.558 713.077 296.093 713.077 c 128,-1,1
382.083 507.774 m 0,14,15
 391.594 561.713 391.594 561.713 361.995 595.564 c 128,-1,16
 332.396 629.417 332.396 629.417 282.007 629.417 c 0,17,18
 232.114 629.417 232.114 629.417 190.399 595.841 c 128,-1,19
 148.683 562.264 148.683 562.264 139.443 509.865 c 0,20,21
 130.466 458.956 130.466 458.956 158.3 423.723 c 128,-1,22
 186.134 388.489 186.134 388.489 239.812 388.489 c 0,23,24
 293.089 388.489 293.089 388.489 332.887 421.487 c 128,-1,25
 372.687 454.483 372.687 454.483 382.083 507.774 c 0,14,15
EndSplineSet
EndChar

StartChar: colon
Encoding: 58 58 29
Width: 161
Flags: W
VStem: 22 117<49.0525 101.105 384.858 432.457>
LayerCount: 2
Fore
SplineSet
51.8438 409 m 0,0,1
 56.25 433.991 56.25 433.991 77.4404 449.25 c 128,-1,2
 98.6182 464.5 98.6182 464.5 120.13 464.5 c 128,-1,3
 141.635 464.5 141.635 464.5 157.617 450.25 c 128,-1,4
 173.6 436 173.6 436 169.02 410 c 0,5,6
 164.259 383 164.259 383 143.025 367.5 c 128,-1,7
 121.792 352 121.792 352 100.293 352 c 128,-1,8
 78.7881 352 78.7881 352 62.9375 367 c 128,-1,9
 47.0879 382 47.0879 382 51.8438 409 c 0,0,1
-8.0498 75 m 0,10,11
 -3.28906 102 -3.28906 102 17.4883 117.75 c 128,-1,12
 38.2656 133.5 38.2656 133.5 60.2656 133.5 c 128,-1,13
 82.2588 133.5 82.2588 133.5 97.6641 118.75 c 128,-1,14
 113.064 104.005 113.064 104.005 108.303 77 c 0,15,16
 103.19 48.0049 103.19 48.0049 82.2803 31.5 c 128,-1,17
 61.3701 15 61.3701 15 39.3701 15 c 128,-1,18
 17.3701 15 17.3701 15 2.19141 31 c 128,-1,19
 -12.9873 47 -12.9873 47 -8.0498 75 c 0,10,11
EndSplineSet
EndChar

StartChar: semicolon
Encoding: 59 59 30
Width: 154
Flags: W
LayerCount: 2
Fore
SplineSet
51.3838 414 m 128,-1,1
 55.9678 439.995 55.9678 439.995 76.6133 455 c 128,-1,2
 97.2578 470 97.2578 470 119.258 470 c 128,-1,3
 141.258 470 141.258 470 156.789 456 c 128,-1,4
 172.321 442 172.321 442 167.736 416 c 0,5,6
 162.976 389 162.976 389 142.242 373.5 c 128,-1,7
 121.504 358 121.504 358 99.5098 358 c 128,-1,8
 77.5098 358 77.5098 358 62.1543 373 c 128,-1,0
 46.7988 388 46.7988 388 51.3838 414 c 128,-1,1
-0.393555 92 m 0,9,10
 4.01465 117 4.01465 117 24.792 132.75 c 128,-1,11
 45.5693 148.5 45.5693 148.5 67.0693 148.5 c 128,-1,12
 88.5635 148.5 88.5635 148.5 103.292 132.75 c 128,-1,13
 118.02 117 118.02 117 112.901 88 c 0,14,15
 109.55 68.9941 109.55 68.9941 97.7012 50 c 128,-1,16
 85.8516 31.0068 85.8516 31.0068 75.999 20.5 c 128,-1,17
 66.1416 9.98828 66.1416 9.98828 44.6787 -4 c 2,18,-1
 19.2695 -20.5 l 2,19,20
 15.3945 -22.9658 15.3945 -22.9658 -3.25781 -32 c 1,21,22
 2.62402 -27 2.62402 -27 10.5635 -16 c 128,-1,23
 18.4414 -5.08887 18.4414 -5.08887 26.1191 7 c 128,-1,24
 33.7393 19 33.7393 19 39.0859 29.5 c 128,-1,25
 44.4365 40.0088 44.4365 40.0088 43.9951 46 c 128,-1,26
 43.5537 51.9941 43.5537 51.9941 36.2012 50 c 0,27,28
 19.499 45.9971 19.499 45.9971 7.69922 58.5 c 128,-1,29
 -4.09668 70.999 -4.09668 70.999 -0.393555 92 c 0,9,10
EndSplineSet
EndChar

StartChar: less
Encoding: 60 60 31
Width: 490
Flags: W
HStem: 136 460<446 451>
VStem: 6 445<374 596>
LayerCount: 2
Fore
SplineSet
491.556 596 m 1,0,-1
 477.449 516 l 1,1,-1
 158.882 371 l 1,2,-1
 419.551 216 l 1,3,-1
 405.444 136 l 1,4,-1
 7.41016 374 l 1,5,-1
 491.556 596 l 1,0,-1
EndSplineSet
EndChar

StartChar: equal
Encoding: 61 61 32
Width: 665
Flags: W
HStem: 200 88<114 556> 438 88<112 552>
LayerCount: 2
Fore
SplineSet
100.775 288 m 1,0,-1
 542.775 288 l 1,1,-1
 527.259 200 l 1,2,-1
 83.2588 200 l 1,3,-1
 100.775 288 l 1,0,-1
138.741 526 m 1,4,-1
 580.741 526 l 1,5,-1
 565.225 438 l 1,6,-1
 125.225 438 l 1,7,-1
 138.741 526 l 1,4,-1
EndSplineSet
EndChar

StartChar: greater
Encoding: 62 62 33
Width: 490
Flags: W
HStem: 136 460<42 47>
VStem: 42 445<374 596>
LayerCount: 2
Fore
SplineSet
82.5557 596 m 1,0,-1
 488.41 374 l 1,1,-1
 6.44434 136 l 1,2,-1
 20.5508 216 l 1,3,-1
 335.882 371 l 1,4,-1
 68.4492 516 l 1,5,-1
 82.5557 596 l 1,0,-1
EndSplineSet
EndChar

StartChar: question
Encoding: 63 63 34
Width: 401
Flags: W
HStem: 0 21G<138.665 153.335> 672 77<112.027 244.471>
VStem: 103 88<220 307.205> 278 82<528.317 639.071>
LayerCount: 2
Fore
SplineSet
61.6914 679 m 1,0,1
 136.255 749.005 136.255 749.005 242.034 749 c 0,2,3
 321.039 749 321.039 749 364.807 699.5 c 128,-1,4
 408.578 650 408.578 650 394.119 568 c 0,5,6
 386.713 525.995 386.713 525.995 363.254 492.03 c 128,-1,7
 339.806 458.07 339.806 458.07 289.965 414 c 2,8,-1
 240.206 370 l 2,9,10
 197.075 331.855 197.075 331.855 186.493 310.43 c 128,-1,11
 175.926 289.011 175.926 289.011 166.755 237 c 2,12,-1
 161.758 220 l 1,13,-1
 75.7578 220 l 1,14,-1
 80.6943 248 l 2,15,16
 90.9229 306.005 90.9229 306.005 111.521 336.79 c 128,-1,17
 132.113 367.57 132.113 367.57 179.26 410 c 2,18,-1
 230.547 457 l 2,19,20
 234.667 460.715 234.667 460.715 247.856 471.4 c 128,-1,21
 260.978 482.018 260.978 482.018 270.807 492.5 c 128,-1,22
 280.733 503.085 280.733 503.085 288.833 512.5 c 0,23,24
 305.812 532.225 305.812 532.225 310.356 558 c 0,25,26
 330.457 672 330.457 672 215.457 672 c 0,27,28
 156.643 672 156.643 672 123.227 639.5 c 0,29,30
 109.337 625.996 109.337 625.996 91.5254 610 c 1,31,-1
 61.6914 679 l 1,0,1
42.7871 16 m 128,-1,33
 27.6094 32.0049 27.6094 32.0049 32.457 59.5 c 128,-1,34
 37.3047 86.9951 37.3047 86.9951 58.083 102.75 c 128,-1,35
 78.8604 118.5 78.8604 118.5 100.86 118.5 c 128,-1,36
 122.854 118.5 122.854 118.5 138.26 103.75 c 128,-1,37
 153.659 89.0049 153.659 89.0049 148.722 61 c 128,-1,38
 143.783 32.9951 143.783 32.9951 122.875 16.5 c 128,-1,39
 101.966 0 101.966 0 79.9658 0 c 128,-1,32
 57.9658 0 57.9658 0 42.7871 16 c 128,-1,33
EndSplineSet
EndChar

StartChar: at
Encoding: 64 64 35
Width: 905
Flags: W
HStem: 18 68<389.073 531.224> 197.5 66.5<418.39 482.601> 475.5 64<420.458 481.513> 638 72<406.929 525.315>
VStem: 98 77<306.784 449.671> 274 73<331.538 403.288> 535.5 63.5<315.003 407.032> 750 71<308.242 437.729>
LayerCount: 2
Fore
SplineSet
646.687 90 m 1,0,1
 613.335 70.9951 613.335 70.9951 594.161 61.5 c 128,-1,2
 574.935 51.9814 574.935 51.9814 541.37 40 c 128,-1,3
 507.73 27.9912 507.73 27.9912 468.372 23 c 128,-1,4
 428.947 18 428.947 18 376.991 18 c 0,5,6
 311.977 18 311.977 18 258.605 38.5 c 128,-1,7
 205.221 59.0049 205.221 59.0049 172.127 92.5 c 128,-1,8
 139.033 125.995 139.033 125.995 118.116 169 c 128,-1,9
 97.2021 211.999 97.2021 211.999 92.3096 258 c 128,-1,10
 87.4199 304 87.4199 304 95.5312 350 c 0,11,12
 120.042 489.005 120.042 489.005 221.85 590 c 0,13,14
 276.371 644 276.371 644 361.19 677 c 128,-1,15
 446.009 710 446.009 710 525.009 710 c 0,16,17
 598.014 710 598.014 710 662.307 689 c 128,-1,18
 726.599 668 726.599 668 762.256 632 c 0,19,20
 807.792 584 807.792 584 821.802 516 c 128,-1,21
 835.812 448 835.812 448 822.234 371 c 0,22,23
 812.184 314 812.184 314 793.276 280.5 c 128,-1,24
 774.365 247.005 774.365 247.005 726.846 210 c 0,25,26
 687.732 181 687.732 181 640.498 174 c 128,-1,27
 593.258 166.995 593.258 166.995 557.82 181.5 c 128,-1,28
 522.383 196.005 522.383 196.005 512.667 226 c 1,29,30
 471.642 197.5 471.642 197.5 426.142 197.5 c 128,-1,31
 380.646 197.5 380.646 197.5 343.154 211.75 c 128,-1,32
 305.674 225.995 305.674 225.995 284.809 266.5 c 128,-1,33
 263.944 307 263.944 307 273.823 363 c 0,34,35
 281.581 406.995 281.581 406.995 302.342 442.5 c 128,-1,36
 323.105 478.002 323.105 478.002 351.716 498.5 c 128,-1,37
 380.345 519.011 380.345 519.011 413.138 529.25 c 128,-1,38
 445.949 539.495 445.949 539.495 479.445 539.5 c 128,-1,39
 512.96 539.5 512.96 539.5 539.389 525 c 0,40,41
 555.802 516 555.802 516 560.686 504 c 1,42,-1
 566.152 535 l 1,43,-1
 639.152 535 l 1,44,-1
 627.162 467 l 2,45,46
 620.112 427.022 620.112 427.022 611.142 404.5 c 128,-1,47
 602.17 381.978 602.17 381.978 596.091 347.5 c 128,-1,48
 590.008 313 590.008 313 589.659 277 c 1,49,50
 593.898 250 593.898 250 629.841 244 c 128,-1,51
 665.788 238 665.788 238 694.015 262 c 0,52,53
 723.437 287.012 723.437 287.012 732.744 303 c 128,-1,54
 742.068 319.017 742.068 319.017 750.529 367 c 0,55,56
 773.098 494.995 773.098 494.995 706.5 571 c 0,57,58
 678.191 603.31 678.191 603.31 624.728 620.5 c 0,59,60
 570.335 638 570.335 638 513.313 638 c 0,61,62
 446.309 638 446.309 638 376.729 612 c 128,-1,63
 307.145 586 307.145 586 265.386 542 c 0,64,65
 192.814 465.005 192.814 465.005 172.531 350 c 0,66,67
 165.479 310.005 165.479 310.005 175.632 265.5 c 128,-1,68
 185.783 221.003 185.783 221.003 211.232 181 c 0,69,70
 239.419 136.69 239.419 136.69 283.33 113.5 c 0,71,72
 337.98 84.6348 337.98 84.6348 388.981 86 c 0,73,74
 426.157 87 426.157 87 456.157 87 c 128,-1,75
 486.172 87 486.172 87 506.892 94 c 0,76,77
 527.868 101.087 527.868 101.087 545.86 108 c 0,78,79
 564.095 115 564.095 115 577.505 123 c 2,80,-1
 606.503 140 l 1,81,-1
 646.687 90 l 1,0,1
347.353 366 m 0,82,83
 341.534 333 341.534 333 353.537 307.5 c 128,-1,84
 365.543 281.998 365.543 281.998 388.954 273 c 128,-1,85
 412.372 264 412.372 264 438.367 264 c 128,-1,86
 464.362 264 464.362 264 489.365 281 c 0,87,88
 519.892 301 519.892 301 527.476 327 c 0,89,90
 530.915 337.995 530.915 337.995 536.293 368.5 c 128,-1,91
 541.671 398.995 541.671 398.995 541.935 409 c 1,92,93
 538.225 439 538.225 439 519.942 457.25 c 128,-1,94
 501.672 475.5 501.672 475.5 475.66 475.5 c 128,-1,95
 449.665 475.5 449.665 475.5 422.854 465.25 c 128,-1,96
 396.049 455.008 396.049 455.008 374.873 428.5 c 128,-1,97
 353.699 401.995 353.699 401.995 347.353 366 c 0,82,83
EndSplineSet
EndChar

StartChar: A
Encoding: 65 65 36
Width: 674
Flags: W
HStem: 175 91<233 434>
LayerCount: 2
Fore
SplineSet
396.71 731 m 1,0,-1
 421.487 639 l 1,1,-1
 591.814 0 l 1,2,-1
 500.79 -37 l 1,3,-1
 441.672 175 l 1,4,-1
 166.672 175 l 1,5,-1
 35.29 -37 l 1,6,-1
 -40.1855 0 l 1,7,-1
 353.485 656 l 1,8,-1
 396.71 731 l 1,0,-1
419.718 266 m 1,9,-1
 359.446 514 l 1,10,-1
 218.718 266 l 1,11,-1
 419.718 266 l 1,9,-1
EndSplineSet
EndChar

StartChar: B
Encoding: 66 66 37
Width: 517
Flags: W
HStem: 0 80<131 317.8> 319 91<131 263.59> 618 70<131 228 228 244 247 262.067>
VStem: 44 87<80 319 410 619> 377 94.5<143.411 244.531>
LayerCount: 2
Fore
SplineSet
104.656 688 m 1,0,-1
 304.656 688 l 1,1,-1
 307.304 686 l 1,2,3
 352.304 686 352.304 686 385.307 669 c 128,-1,4
 418.31 652.005 418.31 652.005 433.871 624 c 128,-1,5
 449.431 596.011 449.431 596.011 451.675 560.5 c 128,-1,6
 453.92 524.997 453.92 524.997 442.597 492 c 0,7,8
 427.167 450.09 427.167 450.09 407.664 430 c 0,9,10
 379.484 400.993 379.484 400.993 346.405 386 c 1,11,12
 345.405 386 345.405 386 345.142 384.5 c 128,-1,13
 344.877 383 344.877 383 345.877 383 c 0,14,15
 385.882 383 385.882 383 413.999 352.5 c 128,-1,16
 442.117 322.005 442.117 322.005 447.289 279 c 128,-1,17
 452.456 235.995 452.456 235.995 443.729 186.5 c 128,-1,18
 435 137 435 137 404.345 95 c 128,-1,19
 373.688 53 373.688 53 323.017 26.5 c 128,-1,20
 272.338 -0.00488281 272.338 -0.00488281 210.344 0 c 2,21,-1
 200.344 0 l 1,22,-1
 32.3438 0 l 1,23,-1
 -16.6562 0 l 1,24,-1
 104.656 688 l 1,0,-1
179.49 619 m 1,25,-1
 142.638 410 l 1,26,-1
 254.638 410 l 2,27,28
 285.522 410 285.522 410 318.486 437.5 c 0,29,30
 345.45 460.001 345.45 460.001 354.655 489.5 c 128,-1,31
 363.855 518.981 363.855 518.981 360.971 548 c 128,-1,32
 358.09 576.985 358.09 576.985 335.699 597.5 c 128,-1,33
 313.319 618.005 313.319 618.005 276.313 618 c 1,34,-1
 276.49 619 l 1,35,-1
 179.49 619 l 1,25,-1
126.592 319 m 1,36,-1
 84.4492 80 l 1,37,-1
 237.449 80 l 2,38,39
 276.449 80 276.449 80 305.77 104.5 c 128,-1,40
 335.079 128.983 335.079 128.983 345.261 164 c 128,-1,41
 355.438 198.998 355.438 198.998 353.016 233.5 c 128,-1,42
 350.594 268 350.594 268 328.008 293 c 128,-1,43
 305.415 318 305.415 318 268.415 318 c 1,44,-1
 268.592 319 l 1,45,-1
 126.592 319 l 1,36,-1
EndSplineSet
EndChar

StartChar: C
Encoding: 67 67 38
Width: 620
Flags: W
HStem: -17.59 85.45<282.964 474.709> 628.75 85.09<282.145 463.65>
VStem: 8.34003 96.63<263.646 435.454>
LayerCount: 2
Fore
SplineSet
566.733 82.4502 m 1,0,1
 446.244 -16.8799 446.244 -16.8799 303.004 -17.5898 c 0,2,3
 205.464 -17.5898 205.464 -17.5898 131.354 31.7002 c 128,-1,4
 57.2881 80.9746 57.2881 80.9746 24.1611 165.75 c 128,-1,5
 -8.93164 250.431 -8.93164 250.431 8.59082 349.55 c 128,-1,6
 26.1279 448.67 26.1279 448.67 83.1631 530.31 c 128,-1,7
 140.202 611.94 140.202 611.94 235.755 662.8 c 128,-1,8
 331.304 713.665 331.304 713.665 446.015 713.84 c 2,9,-1
 447.286 713.85 l 2,10,11
 568.593 714.03 568.593 714.03 653.399 627.04 c 1,12,-1
 581.733 564 l 1,13,14
 539.35 628.005 539.35 628.005 428.15 628.75 c 0,15,16
 314.886 628.75 314.886 628.75 220.2 546.57 c 128,-1,17
 125.466 464.34 125.466 464.34 104.97 348.13 c 128,-1,18
 84.4775 231.91 84.4775 231.91 150.129 149.8 c 128,-1,19
 215.741 67.7197 215.741 67.7197 325.931 67.8604 c 0,20,21
 440.6 67.9951 440.6 67.9951 521.064 150 c 1,22,-1
 566.733 82.4502 l 1,0,1
EndSplineSet
EndChar

StartChar: D
Encoding: 68 68 39
Width: 561
Flags: W
HStem: 0 83.66<83.8625 431.548> 610.34 77.66<82.2645 425.555>
VStem: 39 88.64<83.66 610.34> 451.36 92.64<123.352 576.311>
LayerCount: 2
Fore
SplineSet
99.9209 691 m 1,0,1
 327.16 688.045 327.16 688.045 348.392 688 c 0,2,3
 607.805 687.505 607.805 687.505 546.204 358 c 0,4,5
 478.203 -0.00488281 478.203 -0.00488281 224.079 0 c 2,6,-1
 -21.9209 0 l 1,7,-1
 99.9209 691 l 1,0,1
454.243 361.85 m 0,8,9
 494.605 609.305 494.605 609.305 325.809 610.34 c 0,10,11
 174.784 610.4 174.784 610.4 174.339 610.34 c 1,12,-1
 81.4707 83.6602 l 1,13,14
 121.554 81.8896 121.554 81.8896 232.94 83.6602 c 0,15,16
 409.359 86.6602 409.359 86.6602 454.243 361.85 c 0,8,9
EndSplineSet
EndChar

StartChar: E
Encoding: 69 69 40
Width: 430
Flags: W
HStem: 0 82<146 429> 329 83<146 342> 608 85<146 420>
VStem: 54 92<82 329 412 608>
LayerCount: 2
Fore
SplineSet
115.098 693 m 1,0,-1
 481.098 693 l 1,1,-1
 466.109 608 l 1,2,-1
 192.109 608 l 1,3,-1
 157.55 412 l 1,4,-1
 353.55 412 l 1,5,-1
 338.914 329 l 1,6,-1
 142.914 329 l 1,7,-1
 99.3613 82 l 1,8,-1
 382.361 82 l 1,9,-1
 367.902 0 l 1,10,-1
 -7.09766 0 l 1,11,-1
 115.098 693 l 1,0,-1
EndSplineSet
EndChar

StartChar: F
Encoding: 70 70 41
Width: 418
Flags: W
HStem: 0 21G<58 151> 329 83<151 346> 609 82<151 411>
VStem: 58 93<0 329 412 609>
LayerCount: 2
Fore
SplineSet
118.921 691 m 1,0,-1
 471.921 691 l 1,1,-1
 457.462 609 l 1,2,-1
 197.462 609 l 1,3,-1
 162.726 412 l 1,4,-1
 357.726 412 l 1,5,-1
 343.091 329 l 1,6,-1
 148.091 329 l 1,7,-1
 90.0791 0 l 1,8,-1
 -2.9209 0 l 1,9,-1
 118.921 691 l 1,0,-1
EndSplineSet
EndChar

StartChar: G
Encoding: 71 71 42
Width: 704
Flags: W
HStem: -12.4601 88.9601<319.232 471.985> 274.5 88.72<445.5 580.48> 628 86.62<309.315 504.185>
VStem: 40.0001 89.5799<288.743 445.467> 580.51 92.46<135.05 274.5>
LayerCount: 2
Fore
SplineSet
671.706 363.22 m 1,0,-1
 675.158 363.23 l 1,1,-1
 631.524 115.77 l 1,2,3
 518.371 -10.0049 518.371 -10.0049 336.773 -12.46 c 0,4,5
 177.583 -20.0049 177.583 -20.0049 96.5996 82 c 0,6,7
 8.33594 171.13 8.33594 171.13 39.8555 350 c 0,8,9
 66.377 500.495 66.377 500.495 208.053 612 c 0,10,11
 338.312 715.16 338.312 715.16 465.728 714.62 c 0,12,13
 610.039 714.005 610.039 714.005 683.35 633.25 c 1,14,-1
 611.13 571.49 l 1,15,-1
 610.097 570.68 l 1,16,-1
 609.648 571.71 l 1,17,-1
 611.13 571.49 l 1,18,19
 568.053 627.995 568.053 627.995 455.624 628 c 128,-1,20
 343.199 628 343.199 628 246.403 544.23 c 128,-1,21
 149.611 460.455 149.611 460.455 129.102 348.11 c 0,22,23
 114.45 215.675 114.45 215.675 174.474 138 c 0,24,25
 225.816 71.5498 225.816 71.5498 347.63 76.5 c 0,26,27
 435.937 80.085 435.937 80.085 462.982 94.04 c 2,28,-1
 542.464 135.05 l 1,29,-1
 567.022 274.5 l 1,30,-1
 432.042 274.5 l 1,31,-1
 431.396 276.5 l 1,32,-1
 446.732 363.48 l 1,33,-1
 450.226 363.5 l 1,34,-1
 671.706 363.22 l 1,0,-1
EndSplineSet
EndChar

StartChar: H
Encoding: 72 72 43
Width: 630
Flags: W
HStem: 0 21G<58 151 481 572> 311 83<151 481> 676 20G<481 572>
VStem: 58 93<0 311 394 690> 481 91<0 311 394 696>
LayerCount: 2
Fore
SplineSet
542.361 696 m 1,0,-1
 633.361 696 l 1,1,-1
 510.639 0 l 1,2,-1
 419.639 0 l 1,3,-1
 474.476 311 l 1,4,-1
 144.476 311 l 1,5,-1
 89.6387 0 l 1,6,-1
 -3.36133 0 l 1,7,-1
 118.304 690 l 1,8,-1
 210.304 690 l 1,9,-1
 197.432 617 l 1,10,-1
 158.111 394 l 1,11,-1
 489.111 394 l 1,12,-1
 542.361 696 l 1,0,-1
EndSplineSet
EndChar

StartChar: I
Encoding: 73 73 44
Width: 191
Flags: W
HStem: 0 21G<59 148> 676 20G<58 148>
VStem: 58 90<0 696>
LayerCount: 2
Fore
SplineSet
119.361 696 m 1,0,-1
 209.361 696 l 1,1,-1
 86.6387 0 l 1,2,-1
 -2.36133 0 l 1,3,-1
 119.361 696 l 1,0,-1
EndSplineSet
EndChar

StartChar: J
Encoding: 74 74 45
Width: 396
Flags: W
HStem: 680 20G<273 364>
VStem: 273 91<166.755 700>
LayerCount: 2
Fore
SplineSet
17.7002 72 m 1,0,1
 48.7627 44 48.7627 44 88.2627 44 c 128,-1,2
 127.754 44 127.754 44 162.524 62.5 c 128,-1,3
 197.286 80.9951 197.286 80.9951 221.045 125 c 128,-1,4
 244.804 169 244.804 169 255.207 228 c 2,5,-1
 338.433 700 l 1,6,-1
 429.433 700 l 1,7,-1
 345.148 222 l 2,8,9
 332.805 151.995 332.805 151.995 305.52 96.5 c 128,-1,10
 278.229 41 278.229 41 234.355 10.5 c 128,-1,11
 190.455 -20.0078 190.455 -20.0078 142.098 -33.5 c 128,-1,12
 93.7119 -47 93.7119 -47 46.5391 -39.5 c 128,-1,13
 -0.657227 -31.9961 -0.657227 -31.9961 -37.2305 -7 c 1,14,-1
 17.7002 72 l 1,0,1
EndSplineSet
EndChar

StartChar: K
Encoding: 75 75 46
Width: 636
Flags: W
HStem: 0 21G<49 142 472 587> 666 20G<49 142 414 527>
VStem: 49 93<0 358 361 686>
LayerCount: 2
Fore
SplineSet
474.48 686 m 1,0,-1
 587.48 686 l 1,1,-1
 252.351 362 l 1,2,-1
 526.52 0 l 1,3,-1
 411.52 0 l 1,4,-1
 144.645 358 l 1,5,-1
 81.5195 0 l 1,6,-1
 -11.4805 0 l 1,7,-1
 109.48 686 l 1,8,-1
 202.48 686 l 1,9,-1
 145.174 361 l 1,10,-1
 474.48 686 l 1,0,-1
EndSplineSet
EndChar

StartChar: L
Encoding: 76 76 47
Width: 474
Flags: W
HStem: 0 85<142 425>
VStem: 49 93<85 690>
LayerCount: 2
Fore
SplineSet
202.745 690 m 1,0,-1
 96.0664 85 l 1,1,-1
 379.066 85 l 1,2,-1
 364.079 0 l 1,3,-1
 -11.9209 0 l 1,4,-1
 109.921 691 l 1,5,-1
 202.745 690 l 1,0,-1
EndSplineSet
EndChar

StartChar: M
Encoding: 77 77 48
Width: 694
Flags: W
VStem: 64 98<0 136.875> 572 97<-1 108.75>
LayerCount: 2
Fore
SplineSet
364.504 337 m 1,0,-1
 708.095 726 l 1,1,-1
 592.905 -1 l 1,2,-1
 502.2 0 l 1,3,-1
 586.429 466 l 1,4,-1
 337.35 183 l 1,5,-1
 186.958 468 l 1,6,-1
 88.376 0 l 1,7,-1
 2.08105 0 l 1,8,-1
 146.8 730 l 1,9,-1
 364.504 337 l 1,0,-1
EndSplineSet
EndChar

StartChar: N
Encoding: 78 78 49
Width: 646
Flags: W
HStem: 676 20G<500 588>
VStem: 58 87<3 467> 500 88<204 696>
LayerCount: 2
Fore
SplineSet
168.099 467 m 1,0,-1
 86.2832 3 l 1,1,-1
 -0.716797 3 l 1,2,-1
 122.183 700 l 1,3,-1
 476.725 204 l 1,4,-1
 563.478 696 l 1,5,-1
 651.478 696 l 1,6,-1
 523.817 -28 l 1,7,-1
 168.099 467 l 1,0,-1
EndSplineSet
EndChar

StartChar: O
Encoding: 79 79 50
Width: 752
Flags: W
HStem: -10.5 89<318.562 422.633> 619.5 85<303.459 415.905>
VStem: 22.5 98<295.901 408.131> 628 102<296.976 403.903>
LayerCount: 2
Fore
SplineSet
519.155 597.19 m 128,-1,1
 469.542 619.5 469.542 619.5 407.099 619.5 c 128,-1,2
 344.639 619.5 344.639 619.5 294.583 596.27 c 128,-1,3
 244.526 573.035 244.526 573.035 210.175 535.03 c 128,-1,4
 175.705 496.892 175.705 496.892 152.76 448.29 c 128,-1,5
 129.783 399.645 129.783 399.645 120.853 349 c 128,-1,6
 111.938 298.439 111.938 298.439 120.638 249.33 c 128,-1,7
 129.331 200.238 129.331 200.238 152.437 162.55 c 128,-1,8
 175.456 125.005 175.456 125.005 219.346 101.75 c 128,-1,9
 263.231 78.5 263.231 78.5 323.166 78.5 c 128,-1,10
 383.105 78.5 383.105 78.5 437.709 101.77 c 128,-1,11
 492.31 125.045 492.31 125.045 530.14 163.08 c 128,-1,12
 568.084 201.24 568.084 201.24 593.843 250.32 c 128,-1,13
 619.609 299.416 619.609 299.416 628.617 350.5 c 128,-1,14
 637.619 401.551 637.619 401.551 628.588 450.15 c 128,-1,15
 619.565 498.706 619.565 498.706 594.072 536.89 c 128,-1,0
 568.665 574.93 568.665 574.93 519.155 597.19 c 128,-1,1
580.023 673.29 m 128,-1,17
 646.529 642.078 646.529 642.078 682.019 591.65 c 128,-1,18
 717.448 541.298 717.448 541.298 729.496 476.85 c 128,-1,19
 741.539 412.44 741.539 412.44 729.735 345.5 c 128,-1,20
 717.931 278.55 717.931 278.55 682.748 214.62 c 128,-1,21
 647.565 150.69 647.565 150.69 594.978 100.85 c 128,-1,22
 542.3 50.9297 542.3 50.9297 466.378 20.21 c 128,-1,23
 390.479 -10.4951 390.479 -10.4951 305.953 -10.5 c 128,-1,24
 221.428 -10.5 221.428 -10.5 159.34 20.2197 c 128,-1,25
 97.2275 50.9795 97.2275 50.9795 64.7676 101.42 c 128,-1,26
 32.3486 151.76 32.3486 151.76 21.4844 215.68 c 128,-1,27
 10.6123 279.58 10.6123 279.58 22.5 347 c 128,-1,28
 34.3867 414.415 34.3867 414.415 67.2822 478.3 c 128,-1,29
 100.199 542.23 100.199 542.23 149.86 592.57 c 128,-1,30
 199.599 643.01 199.599 643.01 271.059 673.77 c 128,-1,31
 342.493 704.505 342.493 704.505 428.017 704.5 c 128,-1,16
 513.562 704.5 513.562 704.5 580.023 673.29 c 128,-1,17
EndSplineSet
EndChar

StartChar: P
Encoding: 80 80 51
Width: 506
Flags: W
HStem: 1 21G<63 144> 304 83.75<144 288.063> 618.25 73.75<143.92 294.992>
VStem: 63 81<1 304 387.75 618.25> 362.58 77.92<465.806 542.801>
LayerCount: 2
Fore
SplineSet
119.921 692 m 5,0,-1
 306.921 692 l 2,1,2
 368.916 692 368.916 692 409.983 664 c 128,-1,3
 451.051 635.995 451.051 635.995 463.715 593 c 128,-1,4
 476.382 549.995 476.382 549.995 467.39 499 c 128,-1,5
 458.397 448 458.397 448 428.977 404.5 c 128,-1,6
 399.557 361 399.557 361 347.031 332.5 c 128,-1,7
 294.501 304 294.501 304 228.506 304 c 2,8,-1
 136.506 304 l 1,9,-1
 83.0791 1 l 1,10,-1
 -1.9209 1 l 5,11,-1
 119.921 692 l 5,0,-1
191.837 618.25 m 1,12,-1
 151.193 387.75 l 1,13,-1
 262.323 387.75 l 2,14,15
 295.254 387.75 295.254 387.75 322.938 404.73 c 128,-1,16
 350.624 421.702 350.624 421.702 367.687 446.92 c 128,-1,17
 384.732 472.135 384.732 472.135 389.993 501.97 c 128,-1,18
 395.259 531.829 395.259 531.829 390.272 557.54 c 128,-1,19
 385.303 583.242 385.303 583.242 364.193 600.76 c 128,-1,20
 343.097 618.25 343.097 618.25 309.146 618.25 c 2,21,-1
 191.837 618.25 l 1,12,-1
EndSplineSet
EndChar

StartChar: Q
Encoding: 81 81 52
Width: 763
Flags: W
HStem: -10.26 87.82<288.744 439.978> 615.67 87.78<287.826 456.007>
VStem: 13.65 88.11<262.808 430.339> 642.02 88.16<269.256 430.339>
LayerCount: 2
Fore
SplineSet
606.63 655.58 m 128,-1,1
 680.747 607.7 680.747 607.7 714.298 525.47 c 128,-1,2
 747.855 443.225 747.855 443.225 730.814 346.58 c 0,3,4
 708.338 219.11 708.338 219.11 609.439 120.49 c 1,5,-1
 662.403 47.75 l 1,6,-1
 571.699 -17.4902 l 1,7,-1
 522.959 52.3799 l 1,8,9
 420.549 -10.2598 420.549 -10.2598 316.574 -10.2598 c 128,-1,10
 212.595 -10.2598 212.595 -10.2598 138.474 37.5996 c 128,-1,11
 64.3535 85.4648 64.3535 85.4648 30.793 167.7 c 128,-1,12
 -2.75586 249.939 -2.75586 249.939 14.2852 346.58 c 128,-1,13
 31.3262 443.225 31.3262 443.225 93.8779 525.47 c 128,-1,14
 156.438 607.7 156.438 607.7 247.439 655.58 c 128,-1,15
 338.449 703.45 338.449 703.45 435.471 703.45 c 128,-1,0
 532.486 703.45 532.486 703.45 606.63 655.58 c 128,-1,1
419.992 615.67 m 128,-1,17
 307.822 615.67 307.822 615.67 214.959 536.99 c 128,-1,18
 122.094 458.3 122.094 458.3 102.395 346.58 c 128,-1,19
 82.6953 234.86 82.6953 234.86 147.808 156.21 c 128,-1,20
 212.931 77.5654 212.931 77.5654 325.109 77.5596 c 0,21,22
 403.649 77.5596 403.649 77.5596 476.602 118.86 c 1,23,-1
 418.212 201.32 l 1,24,-1
 506.358 263.46 l 1,25,-1
 561.495 186.37 l 1,26,27
 626.934 257.365 626.934 257.365 642.654 346.58 c 0,28,29
 662.354 458.3 662.354 458.3 597.27 536.99 c 128,-1,16
 532.167 615.665 532.167 615.665 419.992 615.67 c 128,-1,17
EndSplineSet
EndChar

StartChar: R
Encoding: 82 82 53
Width: 489
Flags: W
HStem: 0 21G<52 141 423 524> 313 81<141 279.352> 618 83<141 287.817>
VStem: 49 92<394 618> 52 89<0 313>
LayerCount: 2
Fore
SplineSet
110.803 701 m 1,0,-1
 317.803 701 l 2,1,2
 369.808 701 369.808 701 407.364 681.5 c 128,-1,3
 444.939 661.99 444.939 661.99 462.195 629.5 c 128,-1,4
 479.47 596.974 479.47 596.974 481.735 556 c 128,-1,5
 484.002 515.001 484.002 515.001 470.541 475.5 c 128,-1,6
 457.084 436.013 457.084 436.013 427.64 399.5 c 128,-1,7
 398.21 363.005 398.21 363.005 358.325 341 c 1,8,-1
 462.197 0 l 1,9,-1
 361.197 0 l 1,10,-1
 265.564 314 l 1,11,12
 254.388 313 254.388 313 239.388 313 c 2,13,-1
 134.388 313 l 1,14,-1
 79.1973 0 l 1,15,-1
 -9.80273 0 l 1,16,-1
 110.803 701 l 1,0,-1
188.167 618 m 1,17,-1
 148.67 394 l 1,18,-1
 257.67 394 l 2,19,20
 288.67 394 288.67 394 315.58 410.5 c 128,-1,21
 342.493 427.003 342.493 427.003 359.309 451.5 c 128,-1,22
 376.13 476.005 376.13 476.005 381.242 505 c 128,-1,23
 386.353 533.982 386.353 533.982 381.264 559 c 128,-1,24
 376.178 584.005 376.178 584.005 355.67 601 c 128,-1,25
 335.155 618 335.155 618 302.168 618 c 2,26,-1
 188.167 618 l 1,17,-1
EndSplineSet
EndChar

StartChar: S
Encoding: 83 83 54
Width: 528
Flags: W
HStem: 626 79<216.8 317.329>
VStem: 65.5608 94.4392<530.349 585.849>
LayerCount: 2
Fore
SplineSet
317.566 705 m 0,0,1
 377.566 705 377.566 705 412.479 696 c 128,-1,2
 447.403 686.996 447.403 686.996 478.455 659 c 1,3,-1
 420.641 592 l 1,4,5
 376.642 626.005 376.642 626.005 296.636 626 c 0,6,7
 260.636 626 260.636 626 232.052 600 c 128,-1,8
 203.467 574 203.467 574 194.178 544 c 128,-1,9
 184.888 514.016 184.888 514.016 203.657 481.5 c 0,10,11
 222.946 448.086 222.946 448.086 272.076 430 c 2,12,-1
 348.139 402 l 2,13,14
 373.385 392.707 373.385 392.707 397.878 375 c 0,15,16
 421.387 358.005 421.387 358.005 439.708 331.5 c 128,-1,17
 458.035 304.986 458.035 304.986 465.569 274 c 128,-1,18
 473.103 243 473.103 243 465.962 202.5 c 128,-1,19
 458.82 162 458.82 162 431.415 120 c 0,20,21
 333.325 -30.3331 333.325 -30.3331 122.256 0 c 0,22,23
 94.5032 3.9884 94.5032 3.9884 59.9883 15.5 c 0,24,25
 34.4883 24.0049 34.4883 24.0049 24.3691 29 c 128,-1,26
 14.2549 33.9951 14.2549 33.9951 -16.5752 52 c 1,27,-1
 42.5283 143 l 1,28,29
 82 110 82 110 146.359 97 c 0,30,31
 187.383 88 187.383 88 211.272 88 c 0,32,33
 244.777 88 244.777 88 281.182 104.5 c 128,-1,34
 317.586 121 317.586 121 344.057 152 c 0,35,36
 382.523 200.002 382.523 200.002 368.896 247.5 c 0,37,38
 356.822 289.588 356.822 289.588 305.27 312 c 0,39,40
 235.322 342.41 235.322 342.41 230.912 344 c 0,41,42
 167.216 366.97 167.216 366.97 137.757 397 c 0,43,44
 103.438 431.984 103.438 431.984 95.8936 471.5 c 128,-1,45
 88.3525 510.996 88.3525 510.996 101.265 553 c 128,-1,46
 114.177 595.006 114.177 595.006 143.077 628.5 c 128,-1,47
 171.984 662.003 171.984 662.003 218.275 683.5 c 128,-1,48
 264.571 705 264.571 705 317.566 705 c 0,0,1
EndSplineSet
EndChar

StartChar: T
Encoding: 84 84 55
Width: 490
Flags: W
HStem: 0 21G<198 203 198 288> 609 77<16 203 288 474>
VStem: 203 85<0 609>
LayerCount: 2
Fore
SplineSet
76.4805 686 m 1,0,-1
 534.48 686 l 1,1,-1
 520.903 609 l 1,2,-1
 334.903 609 l 1,3,-1
 227.52 0 l 1,4,-1
 137.52 0 l 1,5,-1
 142.52 0 l 1,6,-1
 249.903 609 l 1,7,-1
 62.9033 609 l 1,8,-1
 76.4805 686 l 1,0,-1
EndSplineSet
EndChar

StartChar: U
Encoding: 85 85 56
Width: 537
Flags: W
HStem: 0 88<258.078 327.825>
VStem: 52 93<216.811 683> 444 91<218.806 682>
LayerCount: 2
Fore
SplineSet
179.392 685 m 1,0,-1
 99.5107 251 l 2,1,2
 66.9938 73 66.9938 73 220.625 73 c 0,3,4
 363.698 73 363.698 73 405.216 255 c 1,5,-1
 405.863 253 l 1,6,-1
 484.863 682 l 1,7,-1
 572.863 682 l 1,8,-1
 493.335 250 l 2,9,10
 457.506 53.3384 457.506 53.3384 299.105 0 c 0,11,12
 251.59 -16 251.59 -16 205.099 -16 c 128,-1,13
 158.608 -16 158.608 -16 117.961 3.50244 c 128,-1,14
 77.3145 23.0049 77.3145 23.0049 48.8623 54.5 c 128,-1,15
 20.4121 86 20.4121 86 9.91016 137 c 0,16,17
 -0.833911 189.141 -0.833911 189.141 10.1582 249 c 2,18,-1
 90.0391 684 l 1,19,-1
 179.392 685 l 1,0,-1
EndSplineSet
EndChar

StartChar: V
Encoding: 86 86 57
Width: 643
Flags: W
LayerCount: 2
Fore
SplineSet
642.533 741 m 5,0,-1
 713.186 693 l 1,1,-1
 261.467 -37 l 1,2,-1
 76.1855 693 l 1,3,-1
 158.356 740 l 5,4,-1
 294.906 193 l 5,5,-1
 642.533 741 l 5,0,-1
EndSplineSet
EndChar

StartChar: W
Encoding: 87 87 58
Width: 842
Flags: W
LayerCount: 2
Fore
SplineSet
365.791 370 m 1,0,-1
 129.848 -21 l 1,1,-1
 12.5684 692 l 1,2,-1
 103.977 717 l 1,3,-1
 177.576 227 l 1,4,-1
 380.117 559 l 1,5,-1
 412.117 559 l 1,6,-1
 496.753 228 l 1,7,-1
 751.152 718 l 1,8,-1
 840.568 692 l 5,9,-1
 472.2 -19 l 1,10,-1
 365.791 370 l 1,0,-1
EndSplineSet
EndChar

StartChar: X
Encoding: 88 88 59
Width: 613
Flags: W
LayerCount: 2
Fore
SplineSet
669.229 669 m 5,0,-1
 418.155 379 l 5,1,-1
 601.506 21 l 1,2,-1
 601.33 20 l 1,3,-1
 601.506 21 l 1,4,-1
 523.367 -36.5 l 1,5,-1
 340.167 310 l 1,6,-1
 39.2188 -26 l 1,7,-1
 -49.4941 21 l 1,8,-1
 293.273 388 l 1,9,-1
 119.229 685 l 1,10,-1
 211.633 744 l 1,11,-1
 366.438 458 l 5,12,-1
 589.751 723 l 5,13,-1
 669.229 669 l 5,0,-1
EndSplineSet
EndChar

StartChar: Y
Encoding: 89 89 60
Width: 604
Flags: W
VStem: 182.376 99<3 21.608 3 102>
LayerCount: 2
Fore
SplineSet
36.8652 692 m 1,0,-1
 133.624 736 l 1,1,-1
 293.552 430 l 1,2,-1
 557.624 736 l 1,3,-1
 653.865 692 l 1,4,-1
 334.74 334 l 1,5,-1
 281.376 3 l 1,6,-1
 182.376 3 l 5,7,-1
 232.035 330 l 1,8,-1
 233.035 330 l 1,9,-1
 36.8652 692 l 1,0,-1
EndSplineSet
EndChar

StartChar: Z
Encoding: 90 90 61
Width: 597
Flags: W
HStem: 0 88<180.39 533.872> 602 80<191.128 493.021>
LayerCount: 2
Fore
SplineSet
191.128 682 m 1,0,-1
 676.128 682 l 1,1,-1
 180.39 88 l 1,2,-1
 549.39 88 l 1,3,-1
 533.872 0 l 1,4,-1
 -20.1279 0 l 1,5,-1
 493.021 602 l 1,6,-1
 151.021 602 l 1,7,-1
 191.128 682 l 1,0,-1
EndSplineSet
EndChar

StartChar: bracketleft
Encoding: 91 91 62
Width: 327
Flags: W
HStem: 0 80<142 286> 622 80<142 284>
VStem: 62 80<80 622> 62 224<0 80 622 702>
LayerCount: 2
Fore
SplineSet
0.109375 0 m 1,0,-1
 123.891 702 l 1,1,-1
 345.891 702 l 1,2,-1
 331.784 622 l 1,3,-1
 189.784 622 l 1,4,-1
 94.2158 80 l 1,5,-1
 238.216 80 l 1,6,-1
 224.109 0 l 1,7,-1
 0.109375 0 l 1,0,-1
EndSplineSet
EndChar

StartChar: backslash
Encoding: 92 92 63
Width: 382
Flags: W
HStem: 0 21G<286 366> 682 20G<19 99>
VStem: 19 347<0 702>
LayerCount: 2
Fore
SplineSet
224.109 0 m 1,0,-1
 80.8906 702 l 1,1,-1
 160.891 702 l 1,2,-1
 304.109 0 l 1,3,-1
 224.109 0 l 1,0,-1
EndSplineSet
EndChar

StartChar: bracketright
Encoding: 93 93 64
Width: 327
Flags: W
HStem: 0 80<62 206> 622 80<64 206>
VStem: 62 224<0 80 622 702> 206 80<80 622>
LayerCount: 2
Fore
SplineSet
224.109 0 m 1,0,-1
 0.109375 0 l 1,1,-1
 14.2158 80 l 1,2,-1
 158.216 80 l 1,3,-1
 253.784 622 l 1,4,-1
 111.784 622 l 1,5,-1
 125.891 702 l 1,6,-1
 347.891 702 l 1,7,-1
 224.109 0 l 1,0,-1
EndSplineSet
EndChar

StartChar: asciicircum
Encoding: 94 94 65
Width: 605
Flags: W
HStem: 530 204<309 448>
VStem: 157 291<530 530>
LayerCount: 2
Fore
SplineSet
430.015 530 m 1,0,-1
 355.015 530 l 1,1,-1
 306.061 621 l 1,2,-1
 219.015 530 l 1,3,-1
 139.015 530 l 1,4,-1
 326.985 734 l 1,5,-1
 430.015 530 l 1,0,-1
EndSplineSet
EndChar

StartChar: underscore
Encoding: 95 95 66
Width: 559
Flags: W
HStem: -82 82<48 511>
LayerCount: 2
Fore
SplineSet
518.229 0 m 1,0,-1
 503.771 -82 l 1,1,-1
 40.7705 -82 l 1,2,-1
 55.2295 0 l 1,3,-1
 518.229 0 l 1,0,-1
EndSplineSet
EndChar

StartChar: grave
Encoding: 193 96 67
Width: 1000
Flags: W
HStem: 791 194<461 551>
VStem: 399 202<838 912>
LayerCount: 2
Fore
SplineSet
478.104 985 m 1,0,-1
 592.184 838 l 1,1,-1
 533.896 791 l 1,2,-1
 403.231 912 l 1,3,-1
 478.104 985 l 1,0,-1
EndSplineSet
EndChar

StartChar: a
Encoding: 97 97 68
Width: 454
Flags: W
HStem: -17.5 82.5<18.75 297.913> 336 79.0713<108.363 353.204>
VStem: 15.2695 441.27<196.479 405.65>
LayerCount: 2
Fore
SplineSet
15.2695 196.479 m 0,0,1
 63.5684 415.071 63.5684 415.071 265.354 415.071 c 0,2,3
 332.931 415.071 332.931 415.071 358.49 367.65 c 1,4,-1
 368.189 405.65 l 1,5,-1
 456.54 405.65 l 1,6,-1
 385.014 0 l 1,7,-1
 297.613 0 l 1,8,-1
 305.806 29.4502 l 1,9,10
 275.664 -16.5 275.664 -16.5 201.5 -17.5 c 0,11,12
 -32.0096 -17.5 -32.0096 -17.5 15.2695 196.479 c 0,0,1
100.604 196.479 m 0,13,14
 63 64.5 63 64.5 210.5 65 c 1,15,16
 298.5 66 298.5 66 328 195 c 1,17,18
 362.556 336 362.556 336 247 336 c 1,19,20
 140.356 336 140.356 336 100.604 196.479 c 0,13,14
EndSplineSet
EndChar

StartChar: b
Encoding: 98 98 69
Width: 450
Flags: W
HStem: -12.1928 78.4688<188.573 333.235> 333.885 75.127<168.125 334.012> 711.441 19.6G<41.0231 132.163>
VStem: 41.0231 90.9148<-2.00081 33.6615 357.631 731.041> 348.116 88.8274<84.113 316.045>
LayerCount: 2
Fore
SplineSet
15.7041 158.159 m 1,0,-1
 115.754 740.52 l 1,1,-1
 199.824 740.52 l 1,2,-1
 132.618 356.071 l 1,3,4
 166.199 406.938 166.199 406.938 248.69 406.943 c 0,5,6
 443.355 406.943 443.355 406.943 406.584 198.427 c 0,7,8
 370.858 -8.5166 370.858 -8.5166 175.155 -10.0928 c 0,9,10
 -11.4596 -11.6436 -11.4596 -11.6436 15.7041 158.159 c 1,0,-1
184.784 66.2764 m 0,11,12
 296.432 66.2764 296.432 66.2764 320.021 200.085 c 128,-1,13
 343.614 333.885 343.614 333.885 237.832 333.885 c 0,14,15
 123.025 333.885 123.025 333.885 99.3818 199.743 c 0,16,17
 75.8496 66.2812 75.8496 66.2812 184.784 66.2764 c 0,11,12
EndSplineSet
EndChar

StartChar: c
Encoding: 99 99 70
Width: 405
Flags: W
HStem: -10.25 84.7617<145.762 249.452> 354.599 82.761<180.847 300.001>
VStem: 13.3955 384.611<208.88 387.93>
LayerCount: 2
Fore
SplineSet
13.3955 208.88 m 0,0,1
 30.9199 308.267 30.9199 308.267 98.3955 372.814 c 128,-1,2
 165.871 437.36 165.871 437.36 261.404 437.36 c 128,-1,3
 356.937 437.36 356.937 437.36 398.007 387.93 c 1,4,-1
 340.125 321.922 l 1,5,6
 326.823 340.748 326.823 340.748 303.783 347.673 c 128,-1,7
 280.744 354.599 280.744 354.599 237.31 354.599 c 128,-1,8
 193.877 354.599 193.877 354.599 150.454 313.76 c 128,-1,9
 107.031 272.921 107.031 272.921 95.1826 205.723 c 0,10,11
 88.6934 168.923 88.6934 168.923 97.2324 141.365 c 128,-1,12
 105.771 113.806 105.771 113.806 123.646 100.327 c 0,13,14
 157.882 74.5117 157.882 74.5117 198.281 74.5117 c 128,-1,15
 238.68 74.5117 238.68 74.5117 259.809 80.0479 c 128,-1,16
 280.938 85.584 280.938 85.584 300.047 98.8154 c 1,17,-1
 332.468 32.9102 l 1,18,-1
 314.559 19.0732 l 2,19,20
 292.039 2.34208 292.039 2.34208 274.296 -1.16929 c 0,21,22
 228.411 -10.25 228.411 -10.25 186.058 -10.25 c 128,-1,23
 143.705 -10.25 143.705 -10.25 110.089 4.23145 c 128,-1,24
 76.4717 18.7129 76.4717 18.7129 51.2559 45.3408 c 128,-1,25
 26.041 71.9678 26.041 71.9678 15.1768 114.666 c 128,-1,26
 4.3125 157.365 4.3125 157.365 13.3955 208.88 c 0,0,1
EndSplineSet
EndChar

StartChar: d
Encoding: 100 100 71
Width: 489
Flags: W
HStem: -10.6051 79.0828<142.194 330.999> 356.249 72.7965<142.072 340.273> 708.338 19.4021G<369.32 459.54>
VStem: 39.6405 85.1168<87.6625 337.064> 369.32 90.2196<2.10325 38.9672 383.354 727.74>
LayerCount: 2
Fore
SplineSet
187.148 -8.39746 m 0,0,1
 -22.957 -8.39746 -22.957 -8.39746 15.416 209.252 c 128,-1,2
 53.7939 426.904 53.7939 426.904 269.301 426.9 c 0,3,4
 364.087 426.9 364.087 426.9 372.232 381.661 c 1,5,-1
 437.225 733.114 l 1,6,-1
 530.294 733.114 l 1,7,-1
 401.026 0 l 1,8,-1
 306.635 4.18457 l 1,9,-1
 313.069 40.6846 l 1,10,11
 277.573 -8.40234 277.573 -8.40234 187.148 -8.39746 c 0,0,1
254.207 356.249 m 0,12,13
 129.199 356.249 129.199 356.249 103.828 212.364 c 128,-1,14
 78.457 68.4766 78.457 68.4766 204.444 68.4766 c 0,15,16
 323.593 68.4766 323.593 68.4766 348.964 212.363 c 128,-1,17
 374.335 356.249 374.335 356.249 254.207 356.249 c 0,12,13
EndSplineSet
EndChar

StartChar: e
Encoding: 101 101 72
Width: 426
Flags: W
HStem: -10.38 80.5402<176.611 273.57> 164.78 80.18<97.5996 327.72> 341.9 77.55<140.992 286.329>
VStem: 13.61 382.34<164.78 312.653 164.78 201.96>
LayerCount: 2
Fore
SplineSet
88.7998 164.78 m 1,0,1
 90.6484 133.625 90.6484 133.625 102.938 112.762 c 128,-1,2
 115.229 91.8984 115.229 91.8984 134.034 83.6201 c 128,-1,3
 152.842 75.3428 152.842 75.3428 166.672 72.6914 c 128,-1,4
 180.502 70.0391 180.502 70.0391 195.406 70.1602 c 0,5,6
 247.178 70.5791 247.178 70.5791 297.82 112.83 c 1,7,-1
 342.807 59.0498 l 1,8,9
 277.733 -10.3848 277.733 -10.3848 176.055 -10.3799 c 0,10,11
 93.1045 -10.3799 93.1045 -10.3799 56.5596 32.6904 c 0,12,13
 25.6982 69.0508 25.6982 69.0508 14.3008 106.432 c 128,-1,14
 2.90332 143.813 2.90332 143.813 13.1562 201.96 c 0,15,16
 29.3779 293.957 29.3779 293.957 96.3984 356.703 c 128,-1,17
 163.419 419.45 163.419 419.45 255.155 419.45 c 0,18,19
 334.851 419.45 334.851 419.45 383.803 349.11 c 0,20,21
 427.154 288.72 427.154 288.72 388.94 164.78 c 1,22,-1
 88.7998 164.78 l 1,0,1
334.848 244.96 m 1,23,24
 334.733 292.674 334.733 292.674 310.166 317.287 c 128,-1,25
 285.6 341.9 285.6 341.9 241.081 341.9 c 128,-1,26
 196.689 341.9 196.689 341.9 161.521 317.345 c 128,-1,27
 126.352 292.79 126.352 292.79 104.728 244.96 c 1,28,-1
 334.848 244.96 l 1,23,24
EndSplineSet
EndChar

StartChar: f
Encoding: 102 102 73
Width: 323
Flags: W
HStem: 346 78<32.1621 68.4082 180.162 269.056>
VStem: -17 95<-100 -84.3397 -100 -5> 18.4082 50<346 396>
LayerCount: 2
Fore
SplineSet
-17 -100 m 1,0,-1
 66.4082 332 l 5,1,-1
 16.4082 332 l 5,2,-1
 30.1621 410 l 5,3,-1
 84.1621 410 l 5,4,5
 103.983 498.76 103.983 498.76 119.765 529.5 c 0,6,7
 142.61 574 142.61 574 171.255 597.5 c 128,-1,8
 199.898 621 199.898 621 227.25 631.5 c 128,-1,9
 254.601 642 254.601 642 280.601 642 c 0,10,11
 297.601 642 297.601 642 309.983 638.5 c 128,-1,12
 322.366 635 322.366 635 334.396 629.5 c 128,-1,13
 346.427 624 346.427 624 354.074 622 c 1,14,-1
 292.85 547 l 1,15,-1
 277.438 556 l 1,16,17
 234.322 556 234.322 556 215.5 528 c 0,18,19
 194.202 500 194.202 500 178.162 410 c 5,20,-1
 281.162 410 l 5,21,-1
 267.056 330 l 5,22,-1
 161.056 330 l 5,23,-1
 78 -100 l 1,24,-1
 -17 -100 l 1,0,-1
EndSplineSet
EndChar

StartChar: g
Encoding: 103 103 74
Width: 458
Flags: W
HStem: -205.02 83.02<182.782 267.325> 11 83<127.407 279.211> 333.92 86.08<127.894 261.671>
VStem: 29.4 84.6<110.271 316.555> 312 91<-68.13 55 108.671 318.101>
LayerCount: 2
Fore
SplineSet
258.603 333.92 m 0,0,1
 153.534 333.92 153.534 333.92 132.797 213.96 c 128,-1,2
 112.06 94 112.06 94 211.639 94 c 128,-1,3
 311.418 94 311.418 94 329.034 204 c 0,4,5
 349.84 333.92 349.84 333.92 258.603 333.92 c 0,0,1
384.416 0 m 2,6,7
 366.033 -104.778 366.033 -104.778 282.146 -164 c 0,8,9
 229.736 -201 229.736 -201 153.357 -201 c 128,-1,10
 76.9768 -201 76.9768 -201 34.0303 -172 c 2,11,-1
 -13.3271 -140 l 1,12,-1
 35.1914 -79 l 1,13,14
 90 -124 90 -124 152 -124 c 0,15,16
 259.673 -124 259.673 -124 280.068 -40 c 2,17,-1
 302.762 55 l 1,18,19
 272.792 11 272.792 11 194.003 11 c 0,20,21
 13.6338 11 13.6338 11 48.4543 215.5 c 128,-1,22
 83.2749 420 83.2749 420 272.621 420 c 0,23,24
 325.604 420 325.604 420 353.365 364 c 1,25,-1
 361.123 403 l 1,26,-1
 455.123 403 l 1,27,-1
 384.416 0 l 2,6,7
EndSplineSet
EndChar

StartChar: h
Encoding: 104 104 75
Width: 439
Flags: W
HStem: 0 21G<41 121 323 402> 339 86<192.346 258.708> 728 20G<41 123>
VStem: 41 80<0 262.655 368 748> 323 79<0 290.622>
LayerCount: 2
Fore
SplineSet
293.054 0 m 1,0,1
 296.976 0.741211 296.976 0.741211 338.256 236 c 0,2,3
 345.03 274.42 345.03 274.42 334.948 301.12 c 128,-1,4
 324.871 327.807 324.871 327.807 303.848 337.41 c 128,-1,5
 282.816 347 282.816 347 256.328 347 c 128,-1,6
 229.82 347 229.82 347 204.771 332.5 c 128,-1,7
 179.703 317.989 179.703 317.989 160.307 293 c 0,8,9
 141.36 268.593 141.36 268.593 135.256 236 c 2,10,-1
 91.0537 0 l 1,11,-1
 3.05371 0 l 1,12,-1
 134.946 748 l 1,13,-1
 224.946 748 l 1,14,-1
 161.942 376 l 1,15,16
 217.749 430.825 217.749 430.825 291.572 433 c 0,17,18
 385.105 435.94 385.105 435.94 417.442 376 c 0,19,20
 443.182 328.541 443.182 328.541 431.546 266 c 2,21,-1
 382.054 0 l 1,22,-1
 293.054 0 l 1,0,1
EndSplineSet
EndChar

StartChar: i
Encoding: 105 105 76
Width: 207
Flags: W
HStem: 0 21G<61 151> 402 20G<59 151>
VStem: 59 92<0 422>
LayerCount: 2
Fore
SplineSet
97.7148 535 m 0,0,1
 101.77 557.995 101.77 557.995 120.695 571.75 c 128,-1,2
 139.621 585.505 139.621 585.505 159.12 585.5 c 128,-1,3
 178.62 585.5 178.62 585.5 192.871 572.75 c 128,-1,4
 207.123 560 207.123 560 202.892 536 c 0,5,6
 198.484 511.005 198.484 511.005 179.427 496.5 c 128,-1,7
 160.369 481.995 160.369 481.995 140.87 482 c 128,-1,8
 121.37 482 121.37 482 107.339 496 c 128,-1,9
 93.3066 509.995 93.3066 509.995 97.7148 535 c 0,0,1
81.79 422 m 1,10,-1
 177.79 422 l 5,11,-1
 103.38 0 l 5,12,-1
 9.37988 0 l 1,13,-1
 81.79 422 l 1,10,-1
EndSplineSet
EndChar

StartChar: j
Encoding: 106 106 77
Width: 207
Flags: W
HStem: 402 20G<59 151>
VStem: 59 92<-116 422>
LayerCount: 2
Fore
SplineSet
109.942 535 m 0,0,1
 113.997 557.995 113.997 557.995 132.922 571.75 c 128,-1,2
 151.848 585.505 151.848 585.505 171.347 585.5 c 128,-1,3
 190.847 585.5 190.847 585.5 205.099 572.75 c 128,-1,4
 219.351 560 219.351 560 215.118 536 c 0,5,6
 210.711 511.005 210.711 511.005 191.653 496.5 c 128,-1,7
 172.596 481.995 172.596 481.995 153.097 482 c 128,-1,8
 133.597 482 133.597 482 119.565 496 c 128,-1,9
 105.533 509.995 105.533 509.995 109.942 535 c 0,0,1
88.0176 422 m 1,10,-1
 184.018 422 l 1,11,-1
 89.1533 -116 l 1,12,-1
 -6.84668 -116 l 1,13,-1
 88.0176 422 l 1,10,-1
EndSplineSet
EndChar

StartChar: k
Encoding: 107 107 78
Width: 490
Flags: W
HStem: 0 21G<50 142 359 477> 404 20G<329 447> 728 20G<50 143>
VStem: 50 93<0 216 238 748>
LayerCount: 2
Fore
SplineSet
208.946 748 m 1,0,-1
 119.02 238 l 1,1,-1
 182.718 293 l 1,2,-1
 337.816 424 l 1,3,-1
 455.816 424 l 1,4,-1
 225.08 227 l 1,5,-1
 411.054 0 l 1,6,-1
 293.054 0 l 1,7,-1
 159.442 161 l 1,8,-1
 114.141 216 l 1,9,-1
 76.0537 0 l 1,10,-1
 -15.9463 0 l 1,11,-1
 115.946 748 l 1,12,-1
 208.946 748 l 1,0,-1
EndSplineSet
EndChar

StartChar: l
Encoding: 108 108 79
Width: 194
Flags: W
HStem: 0 21G<54.89 134.1>
VStem: 54.89 79.21<0 782>
LayerCount: 2
Fore
SplineSet
92.1562 0 m 5,0,-1
 -1.05371 0 l 5,1,-1
 136.834 782 l 5,2,-1
 230.044 782 l 5,3,-1
 92.1562 0 l 5,0,-1
EndSplineSet
EndChar

StartChar: m
Encoding: 109 109 80
Width: 696
Flags: W
HStem: 0 21G<47.19 131.55> 335 84.67<440.055 501.805> 341.45 82.55<168 296.526>
VStem: 47.19 84.36<0 324.59 352 410> 308.3 77.36<1.52588e-05 265.661> 552.39 84.38<1.52588e-05 249.981>
LayerCount: 2
Fore
SplineSet
375.352 358.5 m 1,0,1
 420.623 419.67 420.623 419.67 515.107 419.67 c 0,2,3
 683.388 419.67 683.388 419.67 648.71 223 c 2,4,-1
 609.389 0 l 1,5,-1
 520.009 0 l 1,6,-1
 557.919 215 l 2,7,8
 567.065 266.871 567.065 266.871 550.15 300.93 c 128,-1,9
 533.237 334.995 533.237 334.995 497.618 335 c 128,-1,10
 461.993 335 461.993 335 431.742 304.23 c 128,-1,11
 401.497 273.457 401.497 273.457 391.189 215 c 2,12,-1
 353.278 0 l 1,13,-1
 265.919 0 l 1,14,-1
 303.829 215 l 2,15,16
 326.126 341.45 326.126 341.45 237.756 341.45 c 128,-1,17
 149.376 341.45 149.376 341.45 127.079 215 c 2,18,-1
 89.1689 0 l 1,19,-1
 -1.19141 0 l 1,20,-1
 71.1025 410 l 1,21,-1
 163.473 410 l 1,22,-1
 153.246 352 l 1,23,24
 192.387 424 192.387 424 252.381 424 c 0,25,26
 373.376 424 373.376 424 375.352 358.5 c 1,0,1
EndSplineSet
EndChar

StartChar: n
Encoding: 110 110 81
Width: 396
Flags: W
HStem: 0 21G<296.65 376.5> 337 90.3<139.165 285.359>
VStem: 33.14 79.7<-3.05176e-05 322.208> 296.65 79.85<0 300.02>
LayerCount: 2
Fore
SplineSet
258.978 0 m 1,0,-1
 298.838 226.06 l 2,1,2
 318.4 337 318.4 337 233.75 337 c 0,3,4
 134.589 337 134.589 337 115.028 226.06 c 2,5,-1
 75.168 -0 l 1,6,-1
 -9.53223 0 l 1,7,-1
 62.7617 410 l 1,8,-1
 144.142 410 l 1,9,-1
 134.091 353 l 1,10,11
 165.644 427.31 165.644 427.31 249.572 427.3 c 0,12,13
 419.171 427.3 419.171 427.3 383.688 226.06 c 2,14,-1
 343.828 0 l 1,15,-1
 258.978 0 l 1,0,-1
EndSplineSet
EndChar

StartChar: o
Encoding: 111 111 82
Width: 498
Flags: W
HStem: -12.6501 74.4<204.497 306.034> 356.61 76.17<207.68 294.406>
VStem: 16.7099 86.8601<167.676 250.014> 394.32 82.44<172.018 254.142>
LayerCount: 2
Fore
SplineSet
274.2 356.61 m 0,0,1
 228.54 356.61 228.54 356.61 190.771 334.39 c 0,2,3
 152.235 311.728 152.235 311.728 131.659 279.93 c 0,4,5
 109.979 246.409 109.979 246.409 104.523 215.47 c 0,6,7
 96.6748 170.962 96.6748 170.962 105.546 137.79 c 0,8,9
 114.275 105.12 114.275 105.12 143.781 83.4297 c 128,-1,10
 173.271 61.7402 173.271 61.7402 218.938 61.75 c 0,11,12
 289.258 61.75 289.258 61.75 338.385 107.27 c 0,13,14
 371.267 137.735 371.267 137.735 386.361 180.98 c 0,15,16
 392.087 197.403 392.087 197.403 394.85 213.07 c 0,17,18
 399.396 238.849 399.396 238.849 396.044 263 c 0,19,20
 390.691 301.55 390.691 301.55 358.997 329.09 c 128,-1,21
 327.347 356.61 327.347 356.61 274.2 356.61 c 0,0,1
472.413 317.61 m 0,22,23
 487.051 268.425 487.051 268.425 476.849 210.57 c 128,-1,24
 466.643 152.685 466.643 152.685 433.013 102.95 c 128,-1,25
 399.25 53.0303 399.25 53.0303 339.048 20.1797 c 128,-1,26
 278.884 -12.6553 278.884 -12.6553 206.209 -12.6504 c 0,27,28
 132.529 -12.6504 132.529 -12.6504 83.9385 20.1797 c 128,-1,29
 35.2705 53.0605 35.2705 53.0605 20.8906 103.05 c 0,30,31
 6.60645 152.767 6.60645 152.767 16.7988 210.57 c 128,-1,32
 27.0156 268.51 27.0156 268.51 61.3457 317.74 c 128,-1,33
 95.7783 367.12 95.7783 367.12 155.941 399.95 c 128,-1,34
 216.106 432.785 216.106 432.785 288.78 432.78 c 0,35,36
 362.49 432.78 362.49 432.78 410.068 399.93 c 128,-1,37
 457.688 367.065 457.688 367.065 472.413 317.61 c 0,22,23
EndSplineSet
EndChar

StartChar: p
Encoding: 112 112 83
Width: 467
Flags: W
HStem: -201 21G<38 118> -10 80.45<150.471 326.456> 348.55 71.45<164.023 326.524>
VStem: 38 80<-201 48 88.99 330.01 363 410> 343 85<88.99 330.01>
LayerCount: 2
Fore
SplineSet
190.929 -10 m 0,0,1
 119.934 -10 119.934 -10 107.156 48 c 1,2,-1
 63.25 -201 l 1,3,-1
 -20.75 -201 l 1,4,-1
 86.9863 410 l 1,5,-1
 171.986 410 l 1,6,-1
 163.699 363 l 1,7,8
 210.319 420 210.319 420 273.75 420 c 0,9,10
 482.744 420 482.744 420 445.721 210 c 0,11,12
 406.928 -10.0049 406.928 -10.0049 190.929 -10 c 0,0,1
211.034 70.4502 m 0,13,14
 334.114 70.4502 334.114 70.4502 358.633 209.5 c 128,-1,15
 383.151 348.55 383.151 348.55 260.581 348.55 c 0,16,17
 161.111 348.55 161.111 348.55 136.593 209.5 c 128,-1,18
 112.074 70.4502 112.074 70.4502 211.034 70.4502 c 0,13,14
EndSplineSet
EndChar

StartChar: q
Encoding: 113 113 84
Width: 472
Flags: W
HStem: -201 21G<341.26 420.87> -10.28 80.86<121.67 315.944> 339.33 80.74<121.615 309.587>
VStem: 23.64 80.31<88.564 321.485> 339.88 80.99<-201 -127.27 89.761 322.682 365.81 409.91>
LayerCount: 2
Fore
SplineSet
294.936 420.07 m 0,0,1
 375.021 420.07 375.021 420.07 385.068 365.81 c 1,2,-1
 392.844 409.91 l 1,3,-1
 479.834 409.91 l 1,4,-1
 372.114 -201 l 1,5,-1
 286.504 -201 l 1,6,-1
 328.178 35.3398 l 1,7,8
 306.991 -9.35707 306.991 -9.35707 212.684 -10.2803 c 0,9,10
 2.15519 -12.3413 2.15519 -12.3413 40.4551 204.9 c 0,11,12
 78.3965 420.075 78.3965 420.075 294.936 420.07 c 0,0,1
229.981 70.5801 m 0,13,14
 334.756 70.5801 334.756 70.5801 360.133 214.47 c 0,15,16
 382.149 339.33 382.149 339.33 276.989 339.33 c 0,17,18
 144.464 339.33 144.464 339.33 120.864 205.46 c 0,19,20
 97.0811 70.5801 97.0811 70.5801 229.981 70.5801 c 0,13,14
EndSplineSet
EndChar

StartChar: r
Encoding: 114 114 85
Width: 311
Flags: W
HStem: 0 21G<42 122> 405 20G<241.805 271>
VStem: 42 80<0 222.011 343 410>
LayerCount: 2
Fore
SplineSet
183.916 385 m 0,0,1
 239.886 425.005 239.886 425.005 298.97 425 c 0,2,3
 318.303 425 318.303 425 331.824 417 c 1,4,-1
 302.719 330 l 1,5,6
 276.779 335.999 276.779 335.999 242.954 328.5 c 128,-1,7
 209.127 321 209.127 321 185.929 300 c 128,-1,8
 162.737 279.011 162.737 279.011 142.672 247.5 c 128,-1,9
 122.619 216.01 122.619 216.01 117.856 189 c 2,10,-1
 84.5303 0 l 1,11,-1
 -0.469727 0 l 1,12,-1
 71.8242 410 l 1,13,-1
 157.824 410 l 1,14,-1
 146.011 343 l 1,15,-1
 146.187 344 l 2,16,17
 149.011 360.046 149.011 360.046 183.916 385 c 0,0,1
EndSplineSet
EndChar

StartChar: s
Encoding: 115 115 86
Width: 329
Flags: W
HStem: -10.07 81.57<115.611 226.344> 355.5 78<135.192 216.9>
VStem: 7.15 298.9<71.67 176.69>
LayerCount: 2
Fore
SplineSet
-17.5439 71.6699 m 1,0,-1
 56.7734 123.94 l 1,1,2
 83.9492 73.8076 83.9492 73.8076 144.776 71.5 c 0,3,4
 178.97 73.8184 178.97 73.8184 194.326 85.9463 c 128,-1,5
 209.684 98.0742 209.684 98.0742 215.013 123.94 c 0,6,7
 219.202 144.633 219.202 144.633 202.903 157.925 c 128,-1,8
 186.605 171.217 186.605 171.217 144.366 189.52 c 0,9,10
 96.7148 210.168 96.7148 210.168 77.9854 244.492 c 128,-1,11
 59.2559 278.816 59.2559 278.816 70.3193 335.4 c 0,12,13
 78.4023 376.743 78.4023 376.743 115.9 404.586 c 128,-1,14
 153.399 432.43 153.399 432.43 214.606 433.5 c 0,15,16
 249.522 434.111 249.522 434.111 279.559 418.64 c 128,-1,17
 309.595 403.169 309.595 403.169 326.901 375.79 c 1,18,-1
 278.189 317.82 l 1,19,20
 261.145 340.153 261.145 340.153 243.117 348.407 c 128,-1,21
 225.09 356.661 225.09 356.661 199.354 355.5 c 0,22,23
 176.748 354.481 176.748 354.481 160.884 340.027 c 128,-1,24
 145.021 325.574 145.021 325.574 144.057 304.99 c 0,25,26
 143.032 271.615 143.032 271.615 219.748 245.11 c 0,27,28
 286.878 222.505 286.878 222.505 299.874 176.69 c 0,29,30
 319.335 105.605 319.335 105.605 265.337 45.5303 c 0,31,32
 216.351 -8.98047 216.351 -8.98047 131.514 -10.0703 c 0,33,34
 3.85254 -11.4951 3.85254 -11.4951 -17.5439 71.6699 c 1,0,-1
EndSplineSet
EndChar

StartChar: t
Encoding: 116 116 87
Width: 243
Flags: W
HStem: 0 21G<79.3 160.01> 336.5 90<22.43 79.3 162 219.86>
VStem: 82.28 79.72<0 336.5 426.5 596.26>
LayerCount: 2
Fore
SplineSet
182.887 410.5 m 5,0,-1
 240.747 410.5 l 5,1,-1
 224.878 320.5 l 5,2,-1
 165.027 320.5 l 5,3,-1
 109.693 0 l 1,4,-1
 23.9834 0 l 1,5,-1
 79.4941 321.5 l 5,6,-1
 22.624 321.5 l 5,7,-1
 38.3174 410.5 l 5,8,-1
 98.167 410.5 l 5,9,-1
 132.101 596.26 l 1,10,-1
 222.316 627.43 l 1,11,-1
 182.887 410.5 l 5,0,-1
EndSplineSet
EndChar

StartChar: u
Encoding: 117 117 88
Width: 406
Flags: W
HStem: -10.5 77.81<117.66 256.183>
VStem: 23 82<83.673 410> 288 76<87.131 410>
LayerCount: 2
Fore
SplineSet
22.8691 199 m 2,0,-1
 60.0742 410 l 1,1,-1
 142.074 410 l 1,2,-1
 103.282 190 l 2,3,4
 81.6494 67.3154 81.6494 67.3154 176.599 67.3096 c 0,5,6
 264.649 67.3096 264.649 67.3096 290.867 216 c 2,7,-1
 325.074 410 l 1,8,-1
 407.074 410 l 1,9,-1
 334.78 0 l 1,10,-1
 249.78 0 l 1,11,-1
 256.305 37 l 1,12,13
 232.108 -11.4951 232.108 -11.4951 133.429 -10.5 c 0,14,15
 -14.0715 -10.5 -14.0715 -10.5 22.8691 199 c 2,0,-1
EndSplineSet
EndChar

StartChar: v
Encoding: 118 118 89
Width: 395
Flags: W
HStem: -41.94 467.5<188.11 302.94>
VStem: -2.24999 388.3<400.65 401.53>
LayerCount: 2
Fore
SplineSet
396.029 401.53 m 5,0,-1
 119.894 -41.9404 l 5,1,-1
 7.57422 400.65 l 5,2,-1
 96.793 424.12 l 5,3,-1
 98.5039 423.22 l 5,4,-1
 99.2285 422.45 l 5,5,-1
 159.425 176.07 l 5,6,-1
 317.156 425.56 l 5,7,-1
 396.029 401.53 l 5,0,-1
EndSplineSet
EndChar

StartChar: w
Encoding: 119 119 90
Width: 579
Flags: W
HStem: -33.08 455.93<77.01 388.67>
LayerCount: 2
Fore
SplineSet
34.6299 396.1 m 1,0,-1
 117.206 422.85 l 1,1,-1
 184.313 173.24 l 1,2,-1
 323.899 396.1 l 1,3,-1
 384.894 173.24 l 1,4,-1
 543.4 422.53 l 1,5,-1
 613.17 396.1 l 1,6,-1
 348.474 -33.0801 l 1,7,-1
 285.841 180.26 l 1,8,-1
 147.974 -33.0801 l 1,9,-1
 34.6299 396.1 l 1,0,-1
EndSplineSet
EndChar

StartChar: x
Encoding: 120 120 91
Width: 393
Flags: W
HStem: -18.79 444.39<273.08 302.78>
VStem: 0.679993 376.14<24.44 25.39>
LayerCount: 2
Fore
SplineSet
146.211 228.31 m 1,0,-1
 58.9072 398.03 l 1,1,-1
 156.373 424.66 l 1,2,-1
 210.229 303.21 l 1,3,-1
 312.259 425.6 l 1,4,-1
 387.723 397.89 l 1,5,-1
 246.085 229.18 l 1,6,-1
 345.432 25.3896 l 1,7,-1
 344.841 23.9697 l 1,8,-1
 263.601 -18.79 l 1,9,-1
 183.044 154.26 l 1,10,-1
 43.2432 -18.7197 l 1,11,-1
 -30.876 24.4404 l 1,12,-1
 146.211 228.31 l 1,0,-1
EndSplineSet
EndChar

StartChar: y
Encoding: 121 121 92
Width: 471
Flags: W
VStem: 4.01001 409.56<401.5 402.34>
LayerCount: 2
Fore
SplineSet
148.269 71.8096 m 1,0,-1
 53.2422 401.5 l 1,1,-1
 144.121 431.04 l 1,2,-1
 216.059 176.1 l 1,3,-1
 390.052 432.01 l 1,4,-1
 462.95 402.34 l 1,5,-1
 72.498 -187.43 l 1,6,-1
 -32.6924 -187.43 l 1,7,-1
 148.269 71.8096 l 1,0,-1
EndSplineSet
EndChar

StartChar: z
Encoding: 122 122 93
Width: 421
Flags: W
HStem: 0 86<175 403> 332 82<92 246>
VStem: 10 393<0 86>
LayerCount: 2
Fore
SplineSet
90.041 332 m 1,0,-1
 128.5 414 l 1,1,-1
 438.5 414 l 5,2,-1
 158.664 86 l 5,3,-1
 381.664 86 l 1,4,-1
 366.5 0 l 1,5,-1
 -26.5 0 l 1,6,-1
 268.041 332 l 1,7,-1
 90.041 332 l 1,0,-1
EndSplineSet
EndChar

StartChar: asciitilde
Encoding: 126 126 94
Width: 496
Flags: W
HStem: 500 98<155 369>
VStem: 150 224<535.604 562.396 546 552>
LayerCount: 2
Fore
SplineSet
283.764 559 m 1,0,1
 288.301 545.005 288.301 545.005 302.03 543.5 c 128,-1,2
 315.766 542 315.766 542 326.617 552.5 c 128,-1,3
 337.475 563.006 337.475 563.006 332.938 577 c 1,4,-1
 333.025 577.5 l 2,5,6
 333.113 578 333.113 578 332.29 579 c 1,7,-1
 377.64 598 l 1,8,-1
 377.464 597 l 1,9,10
 383.231 573 383.231 573 374.529 552 c 128,-1,11
 365.835 531.01 365.835 531.01 345.799 519.5 c 128,-1,12
 325.792 508.008 325.792 508.008 304.565 504 c 128,-1,13
 283.354 499.995 283.354 499.995 264.947 509 c 128,-1,14
 246.539 518 246.539 518 240.236 539 c 1,15,-1
 283.764 559 l 1,0,1
240.236 539 m 1,16,17
 235.699 552.995 235.699 552.995 221.97 554.5 c 128,-1,18
 208.234 556 208.234 556 197.383 545.5 c 128,-1,19
 186.525 534.995 186.525 534.995 191.062 521 c 1,20,-1
 190.975 520.5 l 2,21,22
 190.887 520 190.887 520 191.71 519 c 1,23,-1
 146.36 500 l 1,24,-1
 146.536 501 l 1,25,26
 140.769 525 140.769 525 149.471 546 c 128,-1,27
 158.165 566.99 158.165 566.99 178.201 578.5 c 128,-1,28
 198.208 589.992 198.208 589.992 219.435 594 c 128,-1,29
 240.646 598.005 240.646 598.005 259.053 589 c 128,-1,30
 277.461 580 277.461 580 283.764 559 c 1,31,-1
 240.236 539 l 1,16,17
EndSplineSet
EndChar

StartChar: exclamdown
Encoding: 161 161 95
Width: 238
Flags: W
HStem: 0 21G<68 148> 676 20G<101.665 116.335>
VStem: 68 80<0 441>
LayerCount: 2
Fore
SplineSet
6.63867 0 m 1,0,-1
 84.3984 441 l 1,1,-1
 164.398 441 l 1,2,-1
 86.6387 0 l 1,3,-1
 6.63867 0 l 1,0,-1
111.892 591.25 m 128,-1,5
 96.6689 607 96.6689 607 101.518 634.5 c 128,-1,6
 106.366 662 106.366 662 127.364 679 c 128,-1,7
 148.361 696 148.361 696 170.361 696 c 128,-1,8
 192.367 696 192.367 696 207.276 678.5 c 128,-1,9
 222.189 660.995 222.189 660.995 217.253 633 c 128,-1,10
 212.315 604.995 212.315 604.995 191.715 590.25 c 128,-1,11
 171.108 575.5 171.108 575.5 149.114 575.5 c 128,-1,4
 127.114 575.5 127.114 575.5 111.892 591.25 c 128,-1,5
EndSplineSet
EndChar

StartChar: yen
Encoding: 165 165 96
Width: 604
Flags: W
HStem: 112.02 87.99<48.2 256.04 355.43 551.21> 292.02 87.99<45.16 223.74 385.62 548.21> 672 20G<16.07 122.5 483.95 590.38>
VStem: 256.04 99.39<1.52588e-05 112.02 200.01 292.02>
LayerCount: 2
Fore
SplineSet
77.0791 692 m 1,0,-1
 183.509 692 l 1,1,-1
 317.947 418.01 l 1,2,-1
 544.959 692 l 1,3,-1
 651.389 692 l 1,4,-1
 391.617 380.01 l 1,5,-1
 554.207 380.01 l 1,6,-1
 538.691 292.02 l 1,7,-1
 345.912 292.02 l 1,8,-1
 329.688 200.01 l 1,9,-1
 525.468 200.01 l 1,10,-1
 509.953 112.02 l 1,11,-1
 314.173 112.02 l 1,12,-1
 294.421 0 l 1,13,-1
 195.031 0 l 1,14,-1
 214.783 112.02 l 1,15,-1
 6.94336 112.02 l 1,16,-1
 22.458 200.01 l 1,17,-1
 230.298 200.01 l 1,18,-1
 246.521 292.02 l 1,19,-1
 35.6416 292.02 l 1,20,-1
 51.1572 380.01 l 1,21,-1
 229.737 380.01 l 1,22,-1
 77.0791 692 l 1,0,-1
EndSplineSet
EndChar

StartChar: dieresis
Encoding: 200 168 97
Width: 413
Flags: W
HStem: 740 119<94.4 151.6 281.4 338.6>
VStem: 65 116<764.306 835.1> 252 116<764.306 835.1>
LayerCount: 2
Fore
SplineSet
65.0879 800 m 0,0,1
 69.8486 827 69.8486 827 90.6699 843 c 128,-1,2
 111.491 859 111.491 859 133.491 859 c 128,-1,3
 155.491 859 155.491 859 170.847 844 c 128,-1,4
 186.201 829 186.201 829 181.44 802 c 0,5,6
 176.328 773.005 176.328 773.005 155.418 756.5 c 128,-1,7
 134.509 740 134.509 740 112.509 740 c 128,-1,8
 90.5088 740 90.5088 740 75.3301 756 c 128,-1,9
 60.1514 772 60.1514 772 65.0879 800 c 0,0,1
252.088 800 m 0,10,11
 256.849 827 256.849 827 277.67 843 c 128,-1,12
 298.491 859 298.491 859 320.491 859 c 128,-1,13
 342.491 859 342.491 859 357.847 844 c 128,-1,14
 373.201 829 373.201 829 368.44 802 c 0,15,16
 363.328 773.005 363.328 773.005 342.418 756.5 c 128,-1,17
 321.509 740 321.509 740 299.509 740 c 128,-1,18
 277.509 740 277.509 740 262.33 756 c 128,-1,19
 247.151 772 247.151 772 252.088 800 c 0,10,11
EndSplineSet
EndChar

StartChar: guillemotleft
Encoding: 171 171 98
Width: 605
Flags: W
HStem: 138 292<237 444>
VStem: 33 411<292 428>
LayerCount: 2
Fore
SplineSet
469.391 428 m 1,0,-1
 454.051 341 l 1,1,-1
 366.705 288 l 1,2,-1
 434.302 229 l 1,3,-1
 418.256 138 l 1,4,-1
 241.882 289 l 1,5,-1
 469.391 428 l 1,0,-1
262.744 430 m 1,6,-1
 247.58 344 l 1,7,-1
 160.058 290 l 1,8,-1
 227.831 232 l 1,9,-1
 211.609 140 l 1,10,-1
 34.4102 292 l 1,11,-1
 262.744 430 l 1,6,-1
EndSplineSet
EndChar

StartChar: degree
Encoding: 258 176 99
Width: 560
Flags: W
HStem: 730 136<254.39 305.61 280 280>
VStem: 210 46<786.775 818.449> 305 45<786.572 819.3>
LayerCount: 2
Fore
SplineSet
256.705 802 m 0,0,1
 254.215 787.875 254.215 787.875 265.207 782.16 c 128,-1,2
 276.193 776.431 276.193 776.431 289.679 782 c 128,-1,3
 303.155 787.565 303.155 787.565 305.882 803 c 0,4,5
 308.527 818.002 308.527 818.002 297.173 824.5 c 128,-1,6
 285.812 831.001 285.812 831.001 272.585 824 c 128,-1,7
 259.351 817 259.351 817 256.705 802 c 0,0,1
210.529 801 m 0,8,9
 216.171 832.995 216.171 832.995 241.081 849.5 c 128,-1,10
 265.995 866 265.995 866 291.99 866 c 128,-1,11
 317.985 866 317.985 866 336.64 847 c 128,-1,12
 355.294 827.995 355.294 827.995 350.177 799 c 0,13,14
 344.71 768 344.71 768 319.36 749 c 128,-1,15
 294.004 729.995 294.004 729.995 268.01 730 c 128,-1,16
 242.015 730 242.015 730 223.271 748.5 c 128,-1,17
 204.528 766.995 204.528 766.995 210.529 801 c 0,8,9
EndSplineSet
EndChar

StartChar: plusminus
Encoding: 259 177 100
Width: 495
Flags: W
HStem: 127 91<54 442> 474 90<62 202 293 429> 687 20G<202 292>
VStem: 203 90<318 473 564 707>
LayerCount: 2
Fore
SplineSet
390.865 127 m 1,0,-1
 2.86523 127 l 1,1,-1
 18.9111 218 l 1,2,-1
 406.911 218 l 1,3,-1
 390.865 127 l 1,0,-1
439.051 474 m 1,4,-1
 303.051 474 l 1,5,-1
 275.544 318 l 1,6,-1
 185.544 318 l 1,7,-1
 212.874 473 l 1,8,-1
 71.874 473 l 1,9,-1
 87.3906 561 l 1,10,-1
 227.391 561 l 1,11,-1
 253.135 707 l 1,12,-1
 343.135 707 l 1,13,-1
 317.92 564 l 1,14,-1
 454.92 564 l 1,15,-1
 439.051 474 l 1,4,-1
EndSplineSet
EndChar

StartChar: uni00B2
Encoding: 260 178 101
Width: 402
Flags: W
HStem: 525 46<243 380>
VStem: 151 229<525 571>
LayerCount: 2
Fore
SplineSet
120.055 525 m 1,0,-1
 306.968 723 l 2,1,2
 340.021 763 340.021 763 340.486 794 c 128,-1,3
 340.959 825.005 340.959 825.005 308.363 833 c 0,4,5
 292.075 837.005 292.075 837.005 268.981 828 c 128,-1,6
 245.899 819 245.899 819 235.191 798 c 1,7,-1
 200.6 823 l 1,8,9
 235.939 875.995 235.939 875.995 305.945 876 c 0,10,11
 355.94 876 355.94 876 376.185 849 c 128,-1,12
 396.429 822 396.429 822 383.165 778 c 128,-1,13
 369.902 734.005 369.902 734.005 326.267 685 c 2,14,-1
 220.166 571 l 1,15,-1
 357.166 571 l 1,16,-1
 349.055 525 l 1,17,-1
 170.055 525 l 1,18,-1
 120.055 525 l 1,0,-1
EndSplineSet
EndChar

StartChar: uni00B3
Encoding: 261 179 102
Width: 382
Flags: W
HStem: 431.133 22.44<234.979 272.759> 518.343 20.4<244.607 266.027>
VStem: 201.257 113.985<444.393 497.688>
LayerCount: 2
Fore
SplineSet
187.788 844.165 m 1,0,-1
 184.778 844.215 l 1,1,-1
 192.499 888 l 1,2,-1
 405.97 888 l 1,3,-1
 280.994 748.616 l 1,4,5
 323.793 739.422 323.793 739.422 342.19 715.555 c 128,-1,6
 360.59 691.688 360.59 691.688 351.646 640.965 c 128,-1,7
 342.702 590.242 342.702 590.242 301.143 557.28 c 128,-1,8
 259.582 524.317 259.582 524.317 204.782 524.317 c 0,9,10
 148.279 524.317 148.279 524.317 98.2188 552.708 c 1,11,-1
 132.288 590.231 l 1,12,-1
 133.96 590.622 l 1,13,14
 174.971 568.733 174.971 568.733 201.969 568.733 c 0,15,16
 273.769 568.733 273.769 568.733 298.234 611.799 c 0,17,18
 305.039 623.776 305.039 623.776 308.425 642.979 c 0,19,20
 314.079 675.045 314.079 675.045 284.438 696 c 0,21,22
 253.676 717.746 253.676 717.746 207.021 717.746 c 1,23,-1
 200.922 717.746 l 1,24,-1
 316.504 844.32 l 1,25,26
 306.787 844.165 306.787 844.165 277.646 844.165 c 1,27,-1
 187.788 844.165 l 1,0,-1
EndSplineSet
EndChar

StartChar: acute
Encoding: 194 180 103
Width: 1000
Flags: W
HStem: 791 194<334 424>
VStem: 284 202<838 912>
LayerCount: 2
Fore
SplineSet
441.104 985 m 1,0,-1
 490.231 912 l 1,1,-1
 316.896 791 l 1,2,-1
 275.184 838 l 1,3,-1
 441.104 985 l 1,0,-1
EndSplineSet
EndChar

StartChar: uni00B9
Encoding: 262 185 104
Width: 284
Flags: W
VStem: 174 49<530 786>
LayerCount: 2
Fore
SplineSet
187.4 786 m 1,0,-1
 171.933 772 l 1,1,-1
 145.869 800 l 1,2,-1
 223.979 863 l 1,3,-1
 253.739 890 l 1,4,-1
 243.512 832 l 1,5,-1
 244.512 832 l 1,6,-1
 198.138 569 l 1,7,-1
 199.138 569 l 1,8,-1
 192.261 530 l 1,9,-1
 143.261 530 l 1,10,-1
 150.138 569 l 1,11,-1
 187.4 786 l 1,0,-1
EndSplineSet
EndChar

StartChar: guillemotright
Encoding: 187 187 105
Width: 605
Flags: W
HStem: 138 292<34 242>
VStem: 34 411<292 428>
LayerCount: 2
Fore
SplineSet
59.3906 428 m 1,0,-1
 238.882 289 l 1,1,-1
 8.25586 138 l 1,2,-1
 24.3018 229 l 1,3,-1
 112.705 288 l 1,4,-1
 44.0508 341 l 1,5,-1
 59.3906 428 l 1,0,-1
267.744 430 m 1,6,-1
 446.41 292 l 1,7,-1
 216.609 140 l 1,8,-1
 232.831 232 l 1,9,-1
 321.058 290 l 1,10,-1
 252.58 344 l 1,11,-1
 267.744 430 l 1,6,-1
EndSplineSet
EndChar

StartChar: questiondown
Encoding: 191 191 106
Width: 399
Flags: W
HStem: -3.05176e-05 77<162.529 294.973> 729 20G<253.665 268.335>
VStem: 47 82<109.929 220.683> 216 88<441.795 529>
LayerCount: 2
Fore
SplineSet
345.309 70 m 1,0,1
 270.745 -0.00488281 270.745 -0.00488281 164.966 -0 c 0,2,3
 85.9609 -0 85.9609 -0 42.1934 49.5 c 128,-1,4
 -1.57812 99 -1.57812 99 12.8809 181 c 0,5,6
 20.2871 223.005 20.2871 223.005 43.7461 256.97 c 128,-1,7
 67.209 290.93 67.209 290.93 117.035 335 c 2,8,-1
 166.794 379 l 2,9,10
 209.925 417.145 209.925 417.145 220.507 438.57 c 128,-1,11
 231.074 459.989 231.074 459.989 240.245 512 c 2,12,-1
 245.242 529 l 1,13,-1
 331.242 529 l 1,14,-1
 326.306 501 l 2,15,16
 316.077 442.995 316.077 442.995 295.479 412.21 c 128,-1,17
 274.887 381.43 274.887 381.43 227.74 339 c 2,18,-1
 176.453 292 l 2,19,20
 172.333 288.285 172.333 288.285 159.144 277.6 c 128,-1,21
 146.022 266.982 146.022 266.982 136.193 256.5 c 128,-1,22
 126.267 245.915 126.267 245.915 118.167 236.5 c 0,23,24
 101.188 216.775 101.188 216.775 96.6436 191 c 0,25,26
 76.543 77 76.543 77 191.543 77 c 0,27,28
 250.357 77 250.357 77 283.773 109.5 c 0,29,30
 297.662 123.004 297.662 123.004 315.475 139 c 1,31,-1
 345.309 70 l 1,0,1
364.213 733 m 128,-1,33
 379.391 716.995 379.391 716.995 374.543 689.5 c 128,-1,34
 369.695 662.005 369.695 662.005 348.917 646.25 c 128,-1,35
 328.14 630.5 328.14 630.5 306.14 630.5 c 128,-1,36
 284.146 630.5 284.146 630.5 268.74 645.25 c 128,-1,37
 253.341 659.995 253.341 659.995 258.278 688 c 128,-1,38
 263.217 716.005 263.217 716.005 284.125 732.5 c 128,-1,39
 305.034 749 305.034 749 327.034 749 c 128,-1,32
 349.034 749 349.034 749 364.213 733 c 128,-1,33
EndSplineSet
EndChar

StartChar: multiply
Encoding: 281 215 125
Width: 495
Flags: W
HStem: 187 338<143 355>
VStem: 79 340<251 461>
LayerCount: 2
Fore
SplineSet
422.809 457 m 1,0,-1
 309.705 360 l 1,1,-1
 400.485 251 l 1,2,-1
 325.201 187 l 1,3,-1
 234.42 296 l 1,4,-1
 118.788 196 l 1,5,-1
 66.0723 260 l 1,6,-1
 184.882 361 l 1,7,-1
 97.5146 461 l 1,8,-1
 172.799 525 l 1,9,-1
 256.99 424 l 1,10,-1
 370.094 521 l 1,11,-1
 422.809 457 l 1,0,-1
EndSplineSet
EndChar

StartChar: dotlessi
Encoding: 245 305 158
Width: 207
Flags: W
HStem: 0 21G<61 151> 413 20G<59 151>
VStem: 59 92<0 433>
LayerCount: 2
Fore
SplineSet
97.1748 433 m 1,0,-1
 189.175 433 l 1,1,-1
 112.825 0 l 1,2,-1
 22.8252 0 l 1,3,-1
 97.1748 433 l 1,0,-1
EndSplineSet
EndChar

StartChar: uni030A
Encoding: 322 778 167
Width: 154
Flags: W
HStem: 719.5 135.5<50.3903 101.61 76 76>
VStem: 6 46<773.744 808.256> 101 45<774.595 808.3>
LayerCount: 2
Fore
SplineSet
52.6611 791 m 128,-1,1
 49.8389 774.995 49.8389 774.995 60.6943 768.5 c 128,-1,2
 71.5596 761.999 71.5596 761.999 85.2822 769 c 128,-1,3
 99.0176 776.008 99.0176 776.008 101.838 792 c 0,4,5
 104.482 807.002 104.482 807.002 93.1289 813.5 c 128,-1,6
 81.7764 819.996 81.7764 819.996 68.6289 813.5 c 128,-1,0
 55.4834 807.005 55.4834 807.005 52.6611 791 c 128,-1,1
6.48535 790 m 0,7,8
 12.3037 823 12.3037 823 37.125 839 c 128,-1,9
 61.9521 855.005 61.9521 855.005 87.9463 855 c 128,-1,10
 113.941 855 113.941 855 132.596 836 c 128,-1,11
 151.25 816.995 151.25 816.995 146.132 788 c 0,12,13
 140.665 756.995 140.665 756.995 115.36 738.25 c 128,-1,14
 90.0488 719.5 90.0488 719.5 64.0537 719.5 c 128,-1,15
 38.0586 719.5 38.0586 719.5 19.2715 737.75 c 128,-1,16
 0.490234 756.001 0.490234 756.001 6.48535 790 c 0,7,8
EndSplineSet
EndChar

StartChar: quoteleft
Encoding: 96 8216 168
Width: 187
Flags: W
HStem: 567.5 178.5<89 113>
VStem: 40 61<616 696>
LayerCount: 2
Fore
SplineSet
120.628 620 m 1,0,1
 120.277 601.008 120.277 601.008 105.222 586.5 c 128,-1,2
 90.1689 571.995 90.1689 571.995 73.3711 567.5 c 128,-1,3
 56.5762 563.001 56.5762 563.001 42.1934 575 c 128,-1,4
 27.8096 587 27.8096 587 32.9229 616 c 0,5,6
 40.8574 661 40.8574 661 70.5576 699 c 128,-1,7
 100.259 737 100.259 737 128.846 746 c 1,8,9
 114.378 732.005 114.378 732.005 108.029 696 c 128,-1,10
 101.682 660 101.682 660 110.036 645 c 1,11,12
 123.097 634 123.097 634 120.628 620 c 1,0,1
EndSplineSet
EndChar

StartChar: quoteright
Encoding: 39 8217 169
Width: 187
Flags: W
HStem: 558 179.5<80 89.5>
LayerCount: 2
Fore
SplineSet
61.8779 682 m 0,0,1
 65.2285 701.005 65.2285 701.005 76.9609 716.5 c 128,-1,2
 88.6914 731.993 88.6914 731.993 105.164 737.5 c 128,-1,3
 121.619 743.002 121.619 743.002 135.693 732 c 128,-1,4
 149.76 721.005 149.76 721.005 149.817 693 c 0,5,6
 148.06 649.005 148.06 649.005 119.506 609 c 128,-1,7
 90.957 568.995 90.957 568.995 64.0127 558 c 1,8,9
 73.834 574 73.834 574 80.3584 611 c 128,-1,10
 86.8828 648.005 86.8828 648.005 73.1455 658 c 128,-1,11
 59.415 668.005 59.415 668.005 61.8779 682 c 0,0,1
EndSplineSet
EndChar

StartChar: quotedblleft
Encoding: 170 8220 170
Width: 292
Flags: W
HStem: 567.5 180.5<89 235>
VStem: 40 61<616 696> 162 61.5<618 696>
LayerCount: 2
Fore
SplineSet
243.805 622 m 0,0,1
 240.631 604 240.631 604 226.985 589 c 128,-1,2
 213.354 574.008 213.354 574.008 196.136 570 c 128,-1,3
 178.935 565.996 178.935 565.996 164.546 578 c 128,-1,4
 150.162 590 150.162 590 155.1 618 c 0,5,6
 163.034 663 163.034 663 192.734 701 c 128,-1,7
 222.435 739 222.435 739 251.021 748 c 1,8,9
 236.784 732.505 236.784 732.505 230.353 696 c 128,-1,10
 223.918 659.505 223.918 659.505 232.389 648 c 1,11,12
 246.449 637 246.449 637 243.805 622 c 0,0,1
120.452 620 m 1,13,14
 120.101 601.008 120.101 601.008 105.045 586.5 c 128,-1,15
 89.9922 571.995 89.9922 571.995 73.1943 567.5 c 128,-1,16
 56.4004 563.001 56.4004 563.001 42.0176 575 c 128,-1,17
 27.6328 587 27.6328 587 32.7461 616 c 0,18,19
 40.6816 661 40.6816 661 70.3818 699 c 128,-1,20
 100.082 737 100.082 737 128.669 746 c 1,21,22
 114.201 732.005 114.201 732.005 107.853 696 c 128,-1,23
 101.505 660 101.505 660 109.86 645 c 1,24,25
 122.92 634 122.92 634 120.452 620 c 1,13,14
EndSplineSet
EndChar

StartChar: quotedblright
Encoding: 186 8221 171
Width: 358
Flags: W
HStem: 558 182<80 224.5>
LayerCount: 2
Fore
SplineSet
197.206 685 m 1,0,1
 196.38 703 196.38 703 210.201 719 c 128,-1,2
 224.015 735.001 224.015 735.001 240.403 740 c 128,-1,3
 256.779 744.995 256.779 744.995 270.934 734.5 c 128,-1,4
 285.088 724 285.088 724 285.146 696 c 0,5,6
 283.211 651.003 283.211 651.003 254.746 611.5 c 128,-1,7
 226.287 572.005 226.287 572.005 199.165 560 c 1,8,9
 208.986 576 208.986 576 215.51 613 c 128,-1,10
 222.035 650.005 222.035 650.005 208.479 661.03 c 128,-1,11
 194.928 672.055 194.928 672.055 197.206 685 c 1,0,1
61.6768 682 m 0,12,13
 65.0283 701.005 65.0283 701.005 76.7598 716.5 c 128,-1,14
 88.4902 731.993 88.4902 731.993 104.963 737.5 c 128,-1,15
 121.418 743.002 121.418 743.002 135.493 732 c 128,-1,16
 149.56 721.005 149.56 721.005 149.616 693 c 0,17,18
 147.858 649.005 147.858 649.005 119.305 609 c 128,-1,19
 90.7559 568.995 90.7559 568.995 63.8125 558 c 1,20,21
 73.6338 574 73.6338 574 80.1572 611 c 128,-1,22
 86.6826 648.005 86.6826 648.005 72.9453 658 c 128,-1,23
 59.2139 668.005 59.2139 668.005 61.6768 682 c 0,12,13
EndSplineSet
EndChar

StartChar: uniFB00
Encoding: 323 64256 172
Width: 570
Flags: W
HStem: 346 78<32.1621 68.4082 180.162 269.056>
VStem: -17 95<-100 -84.3397 -100 -5> 18.4082 50<346 396>
LayerCount: 2
Fore
SplineSet
367.514 596.887 m 1,0,1
 410.882 661.903 410.882 661.903 465.098 661.903 c 128,-1,2
 519.313 661.903 519.313 661.903 554.074 644 c 1,3,-1
 492.85 569 l 1,4,5
 451 590 451 590 415.5 528 c 0,6,7
 391.539 485.056 391.539 485.056 378.162 410 c 5,8,-1
 481.162 410 l 5,9,-1
 467.056 330 l 5,10,-1
 361.056 330 l 5,11,-1
 278 -100 l 1,12,-1
 183 -100 l 1,13,-1
 266.022 330 l 5,14,-1
 161.056 330 l 5,15,-1
 98 0 l 1,16,-1
 8 0 l 1,17,-1
 71.4082 332 l 5,18,-1
 21.4082 332 l 5,19,-1
 35.1621 410 l 5,20,-1
 89.1621 410 l 5,21,22
 118.542 527.118 118.542 527.118 122.214 534.27 c 0,23,24
 140.444 569.78 140.444 569.78 171.255 597.5 c 0,25,26
 220.717 642 220.717 642 275.359 642 c 128,-1,27
 330 642 330 642 367.514 596.887 c 1,0,1
178.162 410 m 5,28,-1
 284.162 410 l 5,29,30
 301.59 488.06 301.59 488.06 315.9 521.24 c 1,31,32
 309 564 309 564 279 564 c 0,0,0
 236.785 564 236.785 564 214.625 527.125 c 128,-1,1
 192.464 490.251 192.464 490.251 178.162 410 c 5,28,-1
EndSplineSet
LCarets2: 1 0 
Ligature2: "'liga' Standard Ligatures in Latin lookup 0 subtable" f f
EndChar

StartChar: germandbls
Encoding: 251 223 173
Width: 413
Flags: W
HStem: 344.01 79.99<6.07031 62.1396> 344.01 75.67<149.67 301.35>
VStem: 62.1396 84.1904<0 344.01> 66.62 83.05<419.68 487.091>
LayerCount: 2
Fore
SplineSet
264.963 641.98 m 0,0,1
 284.502 642.115 284.502 642.115 298.085 638.48 c 0,2,3
 328.669 630.007 328.669 630.007 341.13 615.99 c 1,4,-1
 285.743 546.99 l 1,5,-1
 268.266 556.02 l 1,6,7
 247.311 556.02 247.311 556.02 239.503 555.41 c 128,-1,8
 231.695 554.801 231.695 554.801 217.184 547.89 c 128,-1,9
 202.672 540.979 202.672 540.979 189.054 525.84 c 0,10,11
 167.472 499.473 167.472 499.473 152.265 415.68 c 1,12,-1
 409.755 415.68 l 1,13,-1
 395.412 335.01 l 1,14,-1
 315.513 244.65 l 1,15,16
 364.171 191.475 364.171 191.475 347.611 97.5303 c 0,17,18
 331.485 6.0752 331.485 6.0752 232.606 -58.9102 c 1,19,-1
 132.207 -58.9102 l 1,20,21
 232.001 6.51562 232.001 6.51562 258.605 87.0596 c 128,-1,22
 285.229 167.61 285.229 167.61 219.803 244.65 c 1,23,-1
 300.603 335.01 l 1,24,-1
 134.582 335.01 l 1,25,-1
 39.9238 -100 l 1,26,-1
 -49.2656 -100 l 1,27,-1
 45.3916 335.01 l 1,28,-1
 -10.6777 335.01 l 1,29,-1
 3.42676 415 l 1,30,-1
 63.9766 415 l 1,31,32
 82.4467 500.6 82.4467 500.6 99.3779 529.49 c 0,33,34
 124.235 574.34 124.235 574.34 155.682 597.51 c 0,35,36
 196.95 627.9 196.95 627.9 205.381 631.48 c 0,37,38
 235.822 641.98 235.822 641.98 264.963 641.98 c 0,0,1
EndSplineSet
EndChar

StartChar: longs
Encoding: 324 383 174
Width: 274
Flags: W
HStem: 556 86<209.438 264.601>
VStem: -30.6006 97<-100 -83.6936 -100 -3>
LayerCount: 2
Fore
SplineSet
65.6328 421 m 6,0,1
 74.4258 470.867 74.4258 470.867 100.518 522.433 c 132,-1,2
 126.61 574 126.61 574 155.255 597.5 c 4,3,4
 209.494 642 209.494 642 264.601 642 c 4,5,6
 291.055 642 291.055 642 310.741 633 c 132,-1,7
 330.427 624 330.427 624 338.074 622 c 5,8,-1
 276.85 547 l 5,9,-1
 261.438 556 l 5,10,11
 221.438 556 221.438 556 198.824 527 c 132,-1,12
 176.21 498 176.21 498 162.28 419 c 6,13,-1
 66.3994 -100 l 5,14,-1
 -30.6006 -100 l 5,15,-1
 65.6328 421 l 6,0,1
EndSplineSet
EndChar

StartChar: cent
Encoding: 162 162 175
Width: 588
Flags: W
VStem: 130.4 76.8<321.6 400.64> 296.8 61.6<93.6 172.8 244.8 477.6 548.8 610.4>
LayerCount: 2
Fore
SplineSet
462.104 445.6 m 1,0,1
 423.899 478.4 423.899 478.4 380.688 478.4 c 1,2,-1
 339.498 244.8 l 1,3,4
 389.118 256.01 389.118 256.01 433.328 282.4 c 1,5,-1
 418.939 200.8 l 1,6,7
 370.016 172.8 370.016 172.8 326.802 172.8 c 1,8,-1
 312.837 93.5996 l 1,9,-1
 251.237 93.5996 l 1,10,-1
 265.484 174.4 l 1,11,12
 192.689 174.4 192.689 174.4 155.406 228.4 c 128,-1,13
 118.128 282.4 118.128 282.4 131.388 357.6 c 0,14,15
 144.789 433.605 144.789 433.605 198.945 484.4 c 0,16,17
 253.744 535.205 253.744 535.205 331.219 547.2 c 1,18,-1
 342.363 610.4 l 1,19,-1
 403.963 610.4 l 1,20,-1
 393.102 548.8 l 1,21,22
 425.906 548.8 425.906 548.8 476.21 525.6 c 1,23,-1
 462.104 445.6 l 1,0,1
318.946 477.6 m 1,24,25
 280.777 470.4 280.777 470.4 248.435 438.4 c 0,26,27
 216.798 406.405 216.798 406.405 209.175 363.2 c 0,28,29
 200.711 315.2 200.711 315.2 220.01 284 c 0,30,31
 240.023 252.8 240.023 252.8 277.897 244.8 c 1,32,-1
 318.946 477.6 l 1,24,25
EndSplineSet
EndChar

StartChar: Euro
Encoding: 325 8364 176
Width: 524
Flags: W
HStem: 42.22 78.12<208.753 380.99> 263.13 70.17<12.54 63.91 143.4 359.98> 391.9 70.07<19.4 69.7 146.05 382.42> 595.74 83.08<200.351 374.528>
VStem: 69.7 68.41<333.3 391.9>
LayerCount: 2
Fore
SplineSet
435.681 187.38 m 1,0,-1
 418.481 89.8398 l 1,1,2
 342.674 42.2148 342.674 42.2148 250.235 42.2197 c 0,3,4
 74.3447 42.2197 74.3447 42.2197 55.0674 263.13 c 1,5,-1
 -24.0322 263.13 l 1,6,-1
 7.74023 333.3 l 1,7,-1
 59.1104 333.3 l 1,8,9
 65.4189 336.24 65.4189 336.24 75.2334 391.9 c 1,10,-1
 5.5332 391.9 l 1,11,-1
 37.2881 461.97 l 1,12,-1
 87.9785 461.97 l 1,13,14
 165.786 678.825 165.786 678.825 366.225 678.82 c 0,15,16
 440.57 678.82 440.57 678.82 506.011 619.42 c 1,17,-1
 489.239 524.3 l 1,18,19
 437.547 595.745 437.547 595.745 359.516 595.74 c 0,20,21
 223.721 595.74 223.721 595.74 163.938 461.97 c 1,22,-1
 429.028 461.97 l 1,23,-1
 387.953 391.9 l 1,24,-1
 143.644 391.9 l 1,25,-1
 133.311 333.3 l 1,26,-1
 383.801 333.3 l 1,27,-1
 342.808 263.13 l 1,28,-1
 126.228 263.13 l 1,29,30
 150.4 120.345 150.4 120.345 270.39 120.34 c 0,31,32
 349.124 120.34 349.124 120.34 435.681 187.38 c 1,0,-1
EndSplineSet
EndChar

StartChar: fi
Encoding: 174 64257 177
Width: 391
Flags: W
HStem: 344.014 80.0059<15.2842 51.7471 163.881 261.729>
VStem: -34.3818 95.3818<-100 -84.4715 -100 -4.61816 -100 -4.61816> 1.52539 50.2217<345.987 396.209 345.987 396.209> 146.78 114.948<229.065 344.014 229.065 344.014> 202.673 90.3643<0.0126953 17.0264 0.0126953 90.377 0.0126953 90.377>
LayerCount: 2
Fore
SplineSet
145 591 m 4,72,73
 221.755 661 221.755 661 314 633 c 0,39,40
 371.345 615.275 371.345 615.275 383 557 c 0,43,44
 387 537 387 537 382.5 510 c 128,-1,46
 378 483 378 483 377 476 c 1,47,-1
 291 476 l 1,48,49
 304.908 513.749 304.908 513.749 300 527 c 0,50,51
 290 554 290 554 246.5 554 c 0,52,53
 201.14 554 201.14 554 185 495 c 0,55,56
 163.147 415.117 163.147 415.117 164 410 c 1,57,-1
 368 410 l 1,58,-1
 293 0 l 1,59,-1
 203 0 l 1,60,-1
 262 331 l 1,61,-1
 147 331 l 1,62,-1
 61 -100 l 1,63,-1
 -34 -100 l 1,64,-1
 52 333 l 1,65,-1
 2 333 l 1,66,-1
 15 410 l 1,67,-1
 70 410 l 1,68,69
 82 451 82 451 94 501 c 0,70,71
 107.716 555.588 107.716 555.588 145 591 c 4,72,73
EndSplineSet
LCarets2: 1 0 
Ligature2: "'liga' Standard Ligatures in Latin lookup 0 subtable" f i
EndChar

StartChar: fl
Encoding: 175 64258 178
Width: 422
Flags: W
HStem: 344.014 80.0049<11.207 47.6689 159.804 249.132> 555.764 86.8398<234.122 336.731>
VStem: -35.8809 95.3809<-100 -83.9903 -100 -4.61914> -2.55273 50.2217<345.987 396.209> 238.864 94.3701<0.727539 17.7413 0.727539 95.0977>
LayerCount: 2
Fore
SplineSet
352.09 642.866 m 2,0,-1
 446.179 641.263 l 1,1,-1
 333.234 0.727539 l 1,2,-1
 238.864 0.727539 l 1,3,-1
 336.731 555.764 l 1,4,-1
 258.134 556.014 l 2,5,6
 237.702 556.079 237.702 556.079 221.183 548.613 c 0,7,8
 202.913 540.359 202.913 540.359 192.501 524.316 c 0,9,10
 173.562 494.382 173.562 494.382 159.804 424.019 c 1,11,-1
 263.238 424.019 l 1,12,-1
 249.132 344.014 l 1,13,-1
 142.702 344.014 l 1,14,-1
 59.5 -100 l 1,15,-1
 -35.8809 -100 l 1,16,-1
 47.6689 345.987 l 1,17,-1
 -2.55273 345.987 l 1,18,-1
 11.207 424.019 l 1,19,-1
 65.4336 424.019 l 1,20,21
 82.9434 523.193 82.9434 523.193 131.682 578.873 c 0,22,23
 183.914 638.546 183.914 638.546 247.34 641.328 c 0,24,25
 262.9 642.011 262.9 642.011 280.416 642.265 c 128,-1,26
 297.931 642.519 297.931 642.519 319.108 642.604 c 128,-1,27
 340.286 642.688 340.286 642.688 352.09 642.866 c 2,0,-1
EndSplineSet
LCarets2: 1 0 
Ligature2: "'liga' Standard Ligatures in Latin lookup 0 subtable" f l
EndChar

StartChar: uniFB06
Encoding: 326 64262 179
Width: 476
Flags: W
HStem: 0 21G<239.194 334.323> 339.016 84.9844<268.204 299.408 410.392 446.402> 556.065 85.9189<225.676 274.152>
VStem: -45.501 97.4062<-100 -84.4559 -100 -2.59375> 239.194 95.1289<0 16.9386 0 95.1289> 253.362 46.0459<339.98 386.026> 394.326 52.0762<286.939 339.016>
LayerCount: 2
Fore
SplineSet
399.092 528.55 m 0,0,1
 408.241 491.316 408.241 491.316 408.241 431.872 c 1,2,-1
 410.392 424 l 1,3,-1
 461.415 424 l 1,4,-1
 446.402 339.016 l 1,5,-1
 394.326 339.016 l 1,6,-1
 334.323 0 l 1,7,-1
 239.194 0 l 1,8,-1
 299.408 339.98 l 1,9,-1
 253.362 339.98 l 1,10,-1
 268.204 424 l 1,11,-1
 317.666 424 l 1,12,13
 319.508 430.86 319.508 430.86 319.775 432.376 c 2,14,-1
 325.383 464.126 l 1,15,16
 325.383 499.352 325.383 499.352 312.488 519.487 c 128,-1,17
 299.594 539.622 299.594 539.622 285.999 546.188 c 2,18,-1
 268.936 554.406 l 2,19,20
 265.446 556.065 265.446 556.065 251.062 556.065 c 128,-1,21
 236.678 556.065 236.678 556.065 218.333 548.531 c 128,-1,22
 199.988 540.998 199.988 540.998 189.27 526.996 c 0,23,24
 167.718 500.067 167.718 500.067 152.076 419.021 c 2,25,-1
 51.9053 -100 l 1,26,-1
 -45.501 -100 l 1,27,-1
 55.0508 420.994 l 2,28,29
 65.1855 473.509 65.1855 473.509 90.0605 522.471 c 0,30,31
 116.223 573.968 116.223 573.968 145.035 597.51 c 0,32,33
 199.464 641.984 199.464 641.984 250.316 641.984 c 0,34,35
 289.527 641.984 289.527 641.984 321.036 625.569 c 0,36,37
 376.253 596.804 376.253 596.804 399.092 528.55 c 0,0,1
EndSplineSet
LCarets2: 1 0 
Ligature2: "'dlig' optionale Ligaturen in Latin lookup 1 subtable" s t
EndChar

StartChar: endash
Encoding: 177 8211 180
Width: 470
Flags: W
HStem: 222 81<49 438>
LayerCount: 2
Fore
SplineSet
430.858 222 m 1,0,-1
 41.8584 222 l 1,1,-1
 56.1416 303 l 1,2,-1
 445.142 303 l 1,3,-1
 430.858 222 l 1,0,-1
EndSplineSet
EndChar

StartChar: emdash
Encoding: 208 8212 181
Width: 742
Flags: W
HStem: 222 81<49 438>
LayerCount: 2
Fore
SplineSet
677.858 222 m 1,0,-1
 41.8584 222 l 1,1,-1
 56.1416 303 l 1,2,-1
 692.142 303 l 1,3,-1
 677.858 222 l 1,0,-1
EndSplineSet
EndChar
